<svg xmlns="http://www.w3.org/2000/svg" viewBox="0 0 1920 564.71"><defs><style>.a{fill:#1a1c1f;}.b{fill:#fff;}.c{fill:#ccc;}.d{fill:#29253e;}.e{fill:#2a253d;}.f{fill:#1d182c;}.g{fill:#e7e6d9;}.h{fill:#120e1e;}.i{fill:#1e1a2a;}.j{fill:#dfddc9;}.k{fill:#281f1a;}.l{fill:#2e2841;}.m{fill:#666456;}.n{fill:#1e1815;}.o{fill:#c4c1a9;}.p{fill:#362821;}.q{fill:#765d54;}.r{fill:#22201f;}.s{fill:#080707;}.t{fill:#4a4339;}.u{fill:#16151f;}.v{fill:#646051;}.w{fill:#7e7b6b;}.x{fill:#322d21;}.y{fill:#53463e;}.z{fill:#111019;}.aa{fill:#656660;}.ab{fill:#888882;}.ac{fill:#e8e6de;}.ad{fill:#5b5a54;}.ae{fill:#646155;}.af{fill:#9c9881;}.ag{fill:#46453f;}.ah{fill:#383835;}.ai{fill:#292a26;}.aj{fill:#e3e2da;}.ak{fill:#60605f;}.al{fill:#30221c;}.am{fill:#575751;}.an{fill:#755549;}.ao{fill:#7f7d71;}.ap{fill:#636361;}.aq{fill:#8f9089;}.ar{fill:#98978f;}.as{fill:#251510;}.at{fill:#676764;}.au{fill:#666664;}.av{fill:#494945;}.aw{fill:#7d7e77;}.ax{fill:#3d3d3e;}.ay{fill:#6a6865;}.az{fill:#a4a59f;}.ba{fill:#342e4e;}.bb{fill:#322c4a;}.bc{fill:#9c8844;}.bd{fill:#191621;}.be{fill:#e2dec4;}.bf{fill:#160d0a;}.bg{fill:#88887f;}.bh{fill:#d9d9d2;}.bi{fill:#ac9f61;}.bj{fill:#a39655;}.bk{fill:#e5dfbe;}.bl{fill:#a9a069;}.bm{fill:#b2aa69;}.bn{fill:#bebd9f;}.bo{fill:#907c41;}.bp{fill:#725951;}.bq{fill:#452e1c;}.br{fill:#59584e;}.bs{fill:#978340;}.bt{fill:#f3e4d7;}.bu{fill:#7c6155;}.bv{fill:#e3d5c3;}.bw{fill:#d7d4d1;}.bx{fill:#6c648b;}.by{fill:#604f28;}.bz{fill:#aea582;}.ca{fill:#232114;}.cb{fill:#e8c8b0;}.cc{fill:#d0b092;}.cd{fill:#43362f;}.ce{fill:#826b5a;}.cf{fill:#9f8874;}.cg{fill:#5a473f;}.ch{fill:#736b65;}.ci{fill:#484037;}.cj{fill:#998d85;}.ck{fill:#817238;}.cl{fill:#deb693;}.cm{fill:#72685c;}.cn{fill:#6e5146;}.co{fill:#eedbc7;}.cp{fill:#1e1411;}.cq{fill:#2d1b16;}.cr{fill:#9b9277;}.cs{fill:#8c7739;}.ct{fill:#dfc9af;}.cu{fill:#ae9f8c;}.cv{fill:#cfc9af;}.cw{fill:#7b6935;}.cx{fill:#bdb084;}.cy{fill:#7c6b3a;}.cz{fill:#2f1a14;}.da{fill:#724f3e;}.db{fill:#d5ceab;}.dc{fill:#63574b;}.dd{fill:#e7dcad;}.de{fill:#3e2b19;}.df{fill:#563e1c;}.dg{fill:#e6d0b9;}.dh{fill:#392e1d;}.di{fill:#806a35;}.dj{fill:#31200e;}.dk{fill:#e0c9b4;}.dl{fill:#7b6e60;}.dm{fill:#302c23;}.dn{fill:#655a4e;}.do{fill:#b7a08b;}.dp{fill:#bfb1a8;}.dq{fill:#483e33;}.dr{fill:#f3e8de;}.ds{fill:#ddd0c6;}.dt{fill:#e5ddc0;}.du{fill:#d0c7b9;}.dv{fill:#585046;}.dw{fill:#e2dcc9;}.dx{fill:#e1dfd2;}.dy{fill:#f2e9de;}.dz{fill:#675745;}.ea{fill:#54483e;}.eb{fill:#8b8273;}.ec{fill:#e5d2b7;}.ed{fill:#94826b;}.ee{fill:#e6d2b9;}</style></defs><rect class="a" width="1920" height="564.71" rx="41.34"/><path class="b" d="M874.66,834.13,845.74,939.26H818.28l-8.22-35.39q-2.2-9-4.4-23.19-1.47-9-2.5-14.25-.74,4.56-2.2,14-1.62,11.16-4.26,23l-7.93,35.83H760.88L732.25,834.13h27.6l7.93,33.92a416.23,416.23,0,0,1,7.34,42.87q2.93-22.75,7.34-42.43l7.93-34.36h26.13l7.34,32.3q5.14,22.91,7.78,44.49a414.81,414.81,0,0,1,8.23-46.1l7.19-30.69Z" transform="translate(0 -677.77)"/><path class="b" d="M970.24,834.13l39.35,105.13H981.11L974.36,920H937.94l-6.75,19.24H903l39.35-105.13ZM968,900.35l-5-14.24a217.08,217.08,0,0,1-6.75-23.64q-2.94,11.44-7.2,23.93l-4.84,14Z" transform="translate(0 -677.77)"/><path class="b" d="M1075.52,834.13V939.26h-27.46V834.13Z" transform="translate(0 -677.77)"/><path class="b" d="M1201.78,834.13v22.61h-50.21V877.3H1195v21.43h-43.46v40.53h-27.46V834.13Z" transform="translate(0 -677.77)"/><path class="b" d="M1291.2,831.49q24.51,0,39,17.32,12.48,15.13,12.48,37.89,0,26.28-16.15,41.69-14.1,13.51-35.38,13.51-25,0-39.65-17.32-12.61-15-12.62-37.88,0-26.3,15.56-41.12Q1269.47,831.5,1291.2,831.49Zm-.15,22.61a21,21,0,0,0-18.5,10q-5.73,8.52-5.73,22.47,0,16.29,7.35,25.11,6.45,7.64,17,7.63,11.15,0,17.47-8.74t6.31-24.44q0-16-7.34-24.52A20.65,20.65,0,0,0,1291.05,854.1Z" transform="translate(0 -677.77)"/><path class="b" d="M1434.64,831.49q24.52,0,39.06,17.32,12.48,15.13,12.48,37.89,0,26.28-16.15,41.69-14.1,13.51-35.39,13.51-25,0-39.64-17.32-12.63-15-12.63-37.88,0-26.3,15.57-41.12Q1412.91,831.5,1434.64,831.49Zm-.14,22.61a21,21,0,0,0-18.5,10q-5.73,8.52-5.73,22.47,0,16.29,7.34,25.11,6.47,7.64,17,7.63,11.16,0,17.47-8.74t6.32-24.44q0-16-7.34-24.52A20.65,20.65,0,0,0,1434.5,854.1Z" transform="translate(0 -677.77)"/><path class="c" d="M840.69,1033.12H821.11q-.43-9.67-12.65-9.68-10.66,0-10.67,6.93a4.8,4.8,0,0,0,2.86,4.62q2.42,1.21,15.51,4.51,12.44,3.2,18,6.71,9.67,5.94,9.68,17.82,0,13-10.23,20-8.91,6.17-23.43,6.16-17.6,0-26.84-8.47-8.14-7.37-8.36-20H795.7q.66,12.54,15.29,12.54,12,0,12-8a6,6,0,0,0-3.14-5.56q-3.14-1.82-15.56-5.33-15.07-4.29-20.24-8.69-6-5.18-6-15a21.2,21.2,0,0,1,9.68-18.37q8.48-5.84,21.67-5.83,15.74,0,24,7.59Q840.48,1021.68,840.69,1033.12Z" transform="translate(0 -677.77)"/><path class="c" d="M948.71,1057.54a34.89,34.89,0,0,1-8.47,21.23q-9.79,11.45-27.94,11.44-19.37,0-30-13.42-9.13-11.32-9.13-28,0-17.27,10.45-29,10.89-12.21,29.37-12.21,15.4,0,25.63,9.57a29.38,29.38,0,0,1,9.57,20.24h-20c-.81-3.59-2-6.31-3.74-8.14q-4.29-4.73-11.77-4.73a16.35,16.35,0,0,0-14.3,7.37q-4.29,6.5-4.29,17,0,12.21,5.5,18.7a16,16,0,0,0,12.87,5.72q8.25,0,12.54-6,2.31-3.3,3.19-9.68Z" transform="translate(0 -677.77)"/><path class="c" d="M1043.64,1009.47v16.94h-42.46v13.09H1040v16.17h-38.83v15.62h43.45v16.94h-64v-78.76Z" transform="translate(0 -677.77)"/><path class="c" d="M1146.6,1009.47v78.76h-20l-21.23-35.75-4.51-8a62.61,62.61,0,0,1-3.3-6.71q.76,8.68.77,20v30.47h-20v-78.76h20.79l19.58,33.33q5.71,9.9,8.8,16.5-.89-11.55-.88-20.35v-29.48Z" transform="translate(0 -677.77)"/><path class="c" d="M1245.93,1009.47v16.94h-42.46v13.09h38.83v16.17h-38.83v15.62h43.45v16.94h-64v-78.76Z" transform="translate(0 -677.77)"/><path class="c" d="M1280.35,1009.47h38.83q12,0,18.26,3.74,10.68,6.27,10.67,19a21.41,21.41,0,0,1-3.3,11.77,18.85,18.85,0,0,1-8.91,7.48,13.28,13.28,0,0,1,7.92,5.94,19.44,19.44,0,0,1,2.7,6.32q.72,3.26,1.7,14.69.78,7.26,2,9l.66.77h-21q-1-2.31-2.31-16.5-.87-7.15-4-10t-10-2.8h-12.65v29.26h-20.57Zm20.57,16.17v18.59h14.52q12.43,0,12.43-9.46,0-9.13-12.65-9.13Z" transform="translate(0 -677.77)"/><path class="c" d="M1453.6,1009.47l-29,49.17v29.59H1404v-29.59l-28.93-49.17h23.32l9.13,16.72a120.66,120.66,0,0,1,6.93,15.18,143.81,143.81,0,0,1,7.48-16.39l8.69-15.51Z" transform="translate(0 -677.77)"/><path class="d" d="M296.1,843c2.67-8.15,6-16,12.08-22.23,7.06-5.63,13.33-12.2,21.75-16.13,13.13-6.14,27-7.34,41.16-7.17a35.6,35.6,0,0,0,8.12-.59A132.62,132.62,0,0,1,424,807.05l-.09-.14a51.63,51.63,0,0,0,11.71,8.26c14,6.91,21.6,19.28,27.44,32.93a57.09,57.09,0,0,1,3.9,31.49c-1.61,10.85-6.52,15.74-17.57,16.16-4.59.17-9.1-.63-13.66-.9-7.21-3.38-11.45-10.27-17.73-14.87-28.15-20.66-59.34-28.64-93.65-22.3-7.45,1.38-14.63,2.78-22.18,2.28-7.16-.48-8.89-2.53-7.13-9.6A31.64,31.64,0,0,0,296.1,843Z" transform="translate(0 -677.77)"/><path class="e" d="M278,876.09l9.58-4.37c9.55-4.2,18.52-9.83,28.67-12.54,36.89-9.84,70.45-2.34,101,19.93a9.69,9.69,0,0,1,1.84,2c1.29,4.38,5,6.1,8.73,7.7,1.63,1.24,2.66,2.71,1.84,4.88-3.18,3.95-7.61,4.94-12.3,4.92-37.31-.11-74.63,1.09-111.89-1.86-6-.48-11.86.74-17.69,1.94-10.17,2.11-18-3.92-26.26-7.91-3.58-1.73-2.62-5.12,1.31-7C268,881.36,273.69,880.14,278,876.09Z" transform="translate(0 -677.77)"/><path class="f" d="M278,876.09c-2.71,5.21-8.47,5.57-12.89,8-1.67,1-4.56.73-4.26,3.49.19,1.82,2,3,3.94,3.4,5.16,1.12,9.84,3.35,14.54,5.68,5.74,2.83,11.08-1.14,16.6-1.76,9.15-1,18.16.24,27.15.61,7.64.31,15.33.84,23,.93,22.66.26,45.34,0,68,.18,5.63.05,10.84-.52,15.32-4.21,4.63.22,6.7,3.48,8.47,7.11a20.68,20.68,0,0,0,8.32,12.13,10.15,10.15,0,0,1,4.38,8.74c.09,5.93.18,11.86,1.66,17.69,1.2,4.73-.75,7.07-5.68,6.56a42.31,42.31,0,0,0-8.19-.23,5,5,0,0,1-1.92-.6c-1.05-5.9-11.3-14.33-18.35-15.08-2-.22-4.1,0-6.15-.14a19.37,19.37,0,0,1-7.71-2.66C386.14,916.48,367,910.34,347,906.31a148,148,0,0,0-38.4-2.39c-2.94.17-5.94.38-8.84-.48-1.88-.56-.53.94-.88,1.39-.53,1.41-5.06-.05-2.54,3.56-1.95,2.61-4.56,1.52-6.82.91a24.52,24.52,0,0,0-15.89.78c-3.37-.08-5.36-2-6.51-5-.16.11.11-1-.25-.11-.16.37,0,.88-.12,1.35a3.86,3.86,0,0,1-1.05,1.6c-2.6.78-5.1,0-7.63-.42a15.64,15.64,0,0,0-5.31-.63c-1.46-.06-1.73,1-2,2.1-.39,1.61-.1,4.07-2.55,4-2-.08-2.71-2-3.12-4-.13,1.93.39,4-1.52,5.3-2.57-2.37-2-5.87-1.18-8.12,2.05-5.58-.75-8.29-4.78-10.6s-8.69-6-7.39-10c1.88-5.78,8.24-3.81,12.61-2.46C255.94,887.2,266.77,881,278,876.09Z" transform="translate(0 -677.77)"/><path class="g" d="M243.53,914.3v-9c4,.78,2.28,5.34,5.2,6.58.48-2.85-.63-5.81.79-8.62,2.31-.11,2,2.74,3.71,3.36,4.78,2.39,10.06,3.15,15.11,4.68a9.47,9.47,0,0,1,1.68,2c4.89,7.52,4.75,7.89-4,10.4-.67.47-3.13-.07-1.9,1.31,4.4,4.92,2.52,8.1-2.17,11a12.53,12.53,0,0,1-4.27,6c-11.73,6.1-18.3,6-29.44-.47,5.11,8,4.17,9.16-7.95,10.9,4.31-.32,8.33,1.92,12.37,4.1,2.69,2.84,1.22,4.29-1.78,5s-6.17.46-9.26.36c-7.66-.16-11.32,7-17.58,9.56,3.95.38,7.51-1.07,11.2-1.66,3.33.11,5,1.25,2.5,4.49-1.38,1.8-3.41,3-4.93,4.68-5.7,6.32-11.87,12-10.6,22.2.77,6.3-1.58,13-4.13,19.13-2,4.74-4.07,9.47-7.13,13.68-4.73,8.55-11.34,13.91-21.76,12.85-1.39-.48-2.94-.83-2.68-2.86a16.35,16.35,0,0,1,6.68-8.37c5.69-3.93,6.88-9.32,5.06-15.68-.09-.91.17.21,0-.68-3.49-14.23-4.76-28.09,8.34-40.11-5.52-.06-7.88,2.3-10.41,4.3l.08-.08c-4.43,1.29-3.93-1.65-3.06-4,1.32-3.55,3.45-6.8,4.38-10.53,1.29-1.36-.21-4.32,2.72-4.73,6.48-2.54,11.86-7,18-10.22-4.08-2.14-9.45,1.52-12.9-3,4.71-5.8,11.57-8.18,18-11.29,3.3-1.57,6.74,1.74,10-.28A1.82,1.82,0,0,1,214,939c.17,0,.42.37.44.35.64-.56.06-1-.2-1.43-5.5-9.29-5.92-19-2.28-29,3,2.15.68,5.37,1.57,8a69.79,69.79,0,0,1,1.79,8.46c3.2,4,6.93,5.66,12.4,5.06a33.48,33.48,0,0,1,22.16,5.12c-4.86-1.51-9.53-5.59-13.22-10.88a.77.77,0,0,1-.68-.54,1.17,1.17,0,0,1-1-1.3c3.05-2.1,5.84-.1,8.73.55,1.68.38,3.91,1.32,2.64-2.09Q244.93,917.83,243.53,914.3Z" transform="translate(0 -677.77)"/><path class="h" d="M472.83,939.47l-.27-.39C472.58,939.36,472.68,939.49,472.83,939.47Z" transform="translate(0 -677.77)"/><path class="h" d="M490,933.77l.07-.14-.07-.07h0C490,933.64,490,933.7,490,933.77Z" transform="translate(0 -677.77)"/><path class="h" d="M524.38,960.05c10.21-4,13.73-14.8,7.59-23.23-2.8-3.86-7.65-3.81-11.17-6.07-3.07-2-3.4.66-4.84,1.58-8.58,2-17.32.67-26,1.23l.07.07-.07.14c.32,4.05,3.74,2.72,6,3.13,6.56,1.19,13.25.06,19.83.88,2,.25,4.48.53,5.16,2.78.79,2.62-2,3.16-3.41,4.48-6,5.49-13.68,5.81-21.05,7.33-8.47,1.74-14.12-1.62-16.42-10.08-.77-2.85-.49-4.52,2.91-4.37s5.72-1,7-4.15c0-.07,0-.13,0-.21h0c-3.21-3.43-10.45-1.24-11.22-8-6,2.7-6.42,8-6.24,13.48a.24.24,0,0,0,0,.09l.27.39a.56.56,0,0,0,.27-.16c.66-.64.3.94.32,1l-.59-.83c-.15,0-.25-.11-.27-.39-5.3-7.48-10.1-14.39-15.27-21-1.8-2.31-3.31-5-6.69-5.4a1.88,1.88,0,0,0-1.29,1.3c1,7.52,4.53,13.76,9.5,19.37a120.28,120.28,0,0,1,14.61,21.36c.69,1.22,1.5,2.58.41,3.76-1.22,1.34-2.51.3-3.58-.56-2.16-1.76-4.43-3.65-7.3-3.3-4.68.58-8.4-1.26-12.2-3.54-2-1.18-4.33-3.14-6.52-.06a4.48,4.48,0,0,0,.93,2.67c3.38,4.43,10,4.92,12.59,10.3a2.74,2.74,0,0,0,1.72.57c2.73-1.21,4.73.52,6.87,1.69a12,12,0,0,0,2.65.83c2.47.41,4.67,1.73,7.16,2,1.72.13,3.39.57,5.09.75,6.47-1.74,13.15-.49,19.69-1.38,2.21-.68,4.41-1.37,6.63-2l16-6Z" transform="translate(0 -677.77)"/><path class="i" d="M436.25,893.84c4.68-1.74,9.34.44,14.07.1,8.38-.6,12.82-3.61,14.28-11.7,2.88-16-.57-30.48-9-44.72-6.45-10.89-15.08-17.95-25.85-23.32-3.11-1.56-4.72-4.17-5.78-7.29,10.72,2.46,19.92,8.23,29.14,13.77a84.22,84.22,0,0,1,29.73,30.55c-.54,6.71,2.3,12.9,3,19.45,1.28,11.43-1.53,17.62-11.71,23.07-2.44,1.3-5,2.58-6.48,5-3.8,6.08-9.3,5.91-15.16,4.34-3.29-.88-6.29-2.83-9.86-2.7a6.4,6.4,0,0,1-2.09-.24C438.15,898.69,435.65,897.33,436.25,893.84Z" transform="translate(0 -677.77)"/><path class="j" d="M166.55,1043.9l2.87,1.43c1.87,2.78,4.19.89,6.25.49,5.23-1,9.25-4.5,13.69-7.11a25.65,25.65,0,0,0,9.68-7.23,14.22,14.22,0,0,1,2.07-1.8c1.14-.78,2.5-1.8,3.74-.87,1.58,1.19.92,3,.07,4.37-4.83,7.66-7,16.34-8.54,21.81,1.06-3.22,4.15-9,8.05-14.3,1-1.43,2.58-3.24,4.5-2.09s.8,3.3.21,5c-1.54,4.33-4.79,7.81-6.12,12.25-.66,3.34.68,6.53.77,9.81a68.63,68.63,0,0,1-10.31,18.92c-2.22,2.76-4.18,2.79-4.88-1-.94-5.13-3.63-10-2.77-14.12a98.21,98.21,0,0,0-4.6,16.69c-1.27,2.33,1.67,5.87-2.14,7.46-1.16-2.37-3.05-4.48-2.74-7.4.88-7.93.28-16,2.57-23.8.12-2.42,1.63-4.82-3.52-3.79-6.52,1.31-13.56,1.32-19.94-2-.25-1.56,1.21-3.78-2.55-3.47a10.77,10.77,0,0,1-8.5-3.12c-2-1.34-4.7-2-5.09-5.92,7.36,2.58,14.54,3.89,21.69.79C162.79,1044.1,164.34,1042.16,166.55,1043.9Z" transform="translate(0 -677.77)"/><path class="k" d="M458.42,964h1.4c3.49.67,2.71,3.68,3.13,5.92.48,2.55.75,5.13,1.24,7.63-.05-4.29-.56-8.58,2.59-12.18l2.6.07c3.9,5.85.1,11.07-1.33,16.49,1.91,6.48,1.14,11.94-5.7,15.12-1.83-1.54-1.83-1.54,1.13-6.43a17.67,17.67,0,0,1,.81-1.63c.88-.09-.43-.07.28-.61s.18-.87-.36-.3c-4.44,4.66-9.84,6.29-16.13,5.31-4.38-.67-7.63,4.28-12.25,2.51-2.13-1.35-1.38-5.1-4.71-5.38.58,1.65,4,2,2.71,4.53s-3.55,1.44-5.46.91c-6.34-1.77-12.38-4.44-18.74-6.16a2.74,2.74,0,0,1-1.21-1.51c2.16-3.55,5-.91,7.3-1.37-.68-1.38-3.19,1-4.21-1.71.72-2.35,3.11-1.75,4.84-1.83a14.28,14.28,0,0,0-8.12,1.38,26.78,26.78,0,0,1-8.18.42c-2.49-.23-5.38-.31-5.8-3.58a6.06,6.06,0,0,1,3.81-6.64,123.21,123.21,0,0,1,19.41-6.67,26.21,26.21,0,0,0,5.18-1.71c4.57-1.41,8.51.6,12.39,2.51,7.37,3.62,15,6.52,22.71,10.33-.09-2.68-3-3.38-2.59-5.65C457.84,971,455.28,966.54,458.42,964Z" transform="translate(0 -677.77)"/><path class="h" d="M441.8,899.27c3-2.77,5.59.06,8.13.86,6.31,2,12.33,5.34,16.58-3.6,1.15-2.41,5-3.94,7.88-5,6.95-2.65,9.94-8.07,9.85-14.79-.09-6-1.39-12.11-2.71-18.05-.63-2.89-1.13-5.27,1.29-7.41,12.37,20.79,13.62,41.92,1.95,63.45-11.68.5-22.11-3.94-32.44-8.46C448.53,904.56,444,903.54,441.8,899.27Z" transform="translate(0 -677.77)"/><path class="l" d="M441.8,899.27c13.54,7.3,28.15,11.65,43,15.41-.33,4.54-2.87,7.85-6,10.83-3.73,4.43-5,9.85-5.85,16.25-8.62-9.6-13.7-20.81-22.84-28.74-4.17-3.84-8.61-7.51-9.6-13.6C440.93,899.38,441.37,899.33,441.8,899.27Z" transform="translate(0 -677.77)"/><path class="h" d="M440.49,899.42c3,4.7,7.86,8,9.6,13.6l-.08.08c-7.45-1.72-10.27-8.07-13.76-13.76a21.43,21.43,0,0,0-6.87-6.89l-2.76-2.75a46,46,0,0,1-8.24-6.88c-8.52-9.53-19.89-14.34-31.37-18.93-15.54-6.21-31.7-8.25-48.37-7.27-11.27.66-22,2.41-32.09,8.23-5.74,3.32-11.94,6.58-19,6.86,4.86-7.42,4.8-16.25,6.85-24.48.39-1.56.6-3,1.68-4.27,2.36,2.8.6,5.59,0,8.42-.83,4.26.14,6.16,5.35,6.92,10.07,1.48,19.27-2.06,28.79-3.41,22.77-3.24,44.29.12,65.21,9.48,15.71,7,28.59,17.69,40.75,29.47Z" transform="translate(0 -677.77)"/><path class="m" d="M258.48,1063.43c-.46-1.7-.93-3.39-1.52-5.52-6.23,13-12.68,25-28.35,27.44-3.34-3.7-.53-7.24.36-10.79a31.8,31.8,0,0,1,3.1-7.53,10.66,10.66,0,0,1,1.05-1.7,26.3,26.3,0,0,1,5.76-5.23c5.85-2.48,8.28-8.37,12.47-12.51,3,.79,4.55,3.05,5.57,5.78.72,1,1.69,1.79,2.45,2.77a7,7,0,0,1,.75,1.81C260.35,1060,260.54,1062.06,258.48,1063.43Z" transform="translate(0 -677.77)"/><path class="n" d="M332.81,1082.84l-8.09-7.27c-.31-2.85,1.91-2.28,3.43-2.37,2-.12,4,.12,5.06-2.07a16.38,16.38,0,0,0,1.05-4.42c.42-2,1.06-3.9,3-5,1.26-.24,1.89.51,2.37,1.51a7.74,7.74,0,0,1,.19,4c-1.87,8.53-1.8,8.27,6.87,10.7,4.58,1.28,8.16,1.7,12.31-1.73,6-4.93,12.63-.73,19,.17a19.51,19.51,0,0,1,4.19,1.29,129.47,129.47,0,0,0-15.87-16.27c-2.41-2.45-4.74-5-7-7.61-1.5-1.77-3.9-3.78-.69-6.23,8.4,4.43,13.45,12.55,20.44,18.53,2.72,2.91,5.57,5.7,8.42,8.49q2.86,3,5.9,5.86c2.17,2.69,5.64,4.77,4.38,9.1a2.31,2.31,0,0,1-1.89-.07,82.42,82.42,0,0,0-21.05-9.14c-13.12-3.5-13.53-3.32-18.13,9.37C349,1086.61,340.61,1085.7,332.81,1082.84Z" transform="translate(0 -677.77)"/><path class="o" d="M180.65,1085.55c1.41-8.14,2.6-16.36,8.26-23.26-3.5,8-1.13,15.47,1.48,22.92,5.93-5.3,7.86-13,11.93-19.34a1.55,1.55,0,0,1,2.09.27c4,5.91,2.4,12.52,2.33,18.92-.38,2.1-1.44,4.07-3.28,4.83-3.69,1.53-5.5,4.49-7.13,7.76-7.57-5.52-9.17-14-11-22.92-1.28,4.32-2.39,8.08-3.51,11.83A1.7,1.7,0,0,1,180.65,1085.55Z" transform="translate(0 -677.77)"/><path class="p" d="M395.88,1089.48l2.13-.33a2.27,2.27,0,0,1,1.84-.12c4.77,4.93,10.45,5.16,16.53,3.18a8.6,8.6,0,0,0,5-4.76c1.17-3.81.17-7.74.68-11.58.67-2.9.65-6.15,3.85-7.93-2.67-.71-5.28,1.16-7.95.25a5.17,5.17,0,0,1-2.65-2.06c-.86-1.33-2-2.77-.81-4.32.95-1.23,2.53-.88,3.84-.5a21.68,21.68,0,0,0,10.15.6c1.57-.29,3.52-.59,3.44-2.62-.11-2.47-2.3-2.64-4.12-2.41-4.52.57-9,1.46-13.6,1.2-2.05-.11-4.13,0-6-1-1.29-.62-2.44-1.6-2.14-3.13.25-1.22,1.61-1.46,2.75-1.6a101.35,101.35,0,0,0,13.51-2.07,10.66,10.66,0,0,1,2.18-.15c5.85.53,12.46-1,15.88,6-5.12,9.14-16.34,15.33-13.95,28.09,1.36,7.26-3.21,10-8.7,11.57C409.28,1098.29,401,1099.12,395.88,1089.48Z" transform="translate(0 -677.77)"/><path class="q" d="M436.36,995.6c3.69-1.69,7.23-4.74,11.42-3.84,7.75,1.65,12.9-2.17,18.37-7.83-.14,2.63,1.75,4.63-1,6.24-5,1.36-8.43,6.63-14.46,5.65,6.07,1,9.49-4.2,14.5-5.7.7,3-4.16,3.68-2.83,6.91a2.59,2.59,0,0,1-2.48,1.43c-2.61,2.68-.36,5.57-.37,8.36,0,1.61.19,3.41-1.8,3.94-1.55.41-2.47-.87-3.27-2-1.42-2-1.85-4.77-4.69-5.5-3.25.56-4.81,4.16-8.14,4.53a6.79,6.79,0,0,1-5.19-1.78c-1.51-2,.43-3.83.41-5.76C436.75,998.71,435.2,997.28,436.36,995.6Z" transform="translate(0 -677.77)"/><path class="r" d="M214.93,1088.12c-4,12.06-4.62,24.17,0,36.49-3.17-8.55-14.54-10.4-15.52-20.1-.7-1.51-1.12-4,.39-4.16,7.95-.93,9.57-7.38,12.16-13.06a4,4,0,0,1,1.62-1.17C214.77,1086.31,215.52,1086.78,214.93,1088.12Z" transform="translate(0 -677.77)"/><path class="s" d="M332.81,1082.84c8.61.05,16.83,1.43,23.89,6.87.37,10.14.37,10.14-8.18,11.55C346.83,1091.88,338,1088.83,332.81,1082.84Z" transform="translate(0 -677.77)"/><path class="t" d="M334.46,1071.42c0,2.47-.24,4.38-3.72,3.76-1.9-.35-4.19-1.94-6,.39-10.12-8.82-19.78-18.21-31.41-25.14a29.47,29.47,0,0,1-1.51-4.09c-.51-3.16-1.35-6.28-1.06-9.53,1.14-1.89-.13-6.19,4.54-4.6,2.17,3,1,6.52,1.23,9.82-.23,6.09,3.83,8.2,8.81,9.43,4.61,9.31,13.8,11.77,22.46,15C330.5,1067.46,333.68,1067.82,334.46,1071.42Z" transform="translate(0 -677.77)"/><path class="u" d="M378.58,797.65c-1.91,1.83-4.26,1.13-6.49,1.12-22.73-.16-44.31,3-60.72,21.09-.76.83-1.58,2.61-3.19.87,12.21-15.92,29.25-22.24,48.41-24.44,6.81-.78,13.61-.5,20.42-.32A1.88,1.88,0,0,1,378.58,797.65Z" transform="translate(0 -677.77)"/><path class="v" d="M213.06,1087.7c-1.89,6.76-3.57,13.68-12.71,13.91-.32,0-.6,1.89-.91,2.9-1.11-2.25-1.11-5-3.11-6.86,0-1.13-.34-2.88.21-3.25,1.35-.91-4.42-7.41,2.9-3.68.91.47,3.7-2.75,5.62-4.25,2.05-2-1.11-5.66,2.33-7.19C210.55,1081.22,208.44,1086.74,213.06,1087.7Z" transform="translate(0 -677.77)"/><path class="w" d="M278.24,1048.29l-.56,5.29c-1.47,3.76-5.41,2.82-8.12,4.24-1.62-1.07-.81-3.17-1.86-4.77-.74,1.27-1.34,2.31-1.95,3.34-2.2.27-3.18,2.81-5.47,2.92-1.18-.71-.57-2.31-1.53-3.13l0,0c-2-2.12-2-4.65-1.5-7.29.57-2,1.16-4,3-5.34,2-.74,3.57.68,5.33,1.15,2.64-.65,4.64.66,6.61,2.08,1.42.06,2.54-.66,3.79-1.17C279,1044.44,278.73,1046.34,278.24,1048.29Z" transform="translate(0 -677.77)"/><path class="x" d="M234,1065.88c-1.94,6.45-5.72,12.39-5.41,19.47-2.88,7.05-1.42,14.17.27,22.34-5.9-5-7.67-11.18-10.31-16.8,3.34-2.59,5.45-5.68,4.15-10.17C226.79,1076,226.84,1068.23,234,1065.88Z" transform="translate(0 -677.77)"/><path class="y" d="M461.34,1015.89c1,5,1.91,10.09,3.06,15.08,1,4.48-2,6.09-5.15,7.23-2.48.89-5.26,1-7.92,1.38-1.47-1.13-3.45,2.1-4.75-.54a2.91,2.91,0,0,1,.61-2.63c.52-.86,2.84-1.28.62-2.79-1.32-.91-4-1.12-3-3.51.73-1.75,3-1.64,4.71-1.86,1.1-.14,2.19-.37,3.3-.43,2.28-.25,4.17,1.28,6.51,1.51-.12-4-2.49-7.87-.44-11.84A3.39,3.39,0,0,1,461.34,1015.89Z" transform="translate(0 -677.77)"/><path class="z" d="M378.58,797.65,377,796c16.68-.55,32.42,2.85,47,11.08-5.62.16-10.63-2.47-15.65-4.22C398.65,799.44,388.36,800.2,378.58,797.65Z" transform="translate(0 -677.77)"/><path class="aa" d="M176.17,983.36c2.64-5.07,8.25-5.61,13-7.88-2.6,4-4.92,8.2-7.84,11.94-5.62,7.18-5.69,15-3.6,23.29.77,3.08,1,6.3,1.48,9.46.32,1.34-.33,1.72-1.54,1.55-.92-4.67-2-9.31-2.74-14-1.63-10.05,1.48-18.79,8.45-26.49C179.83,980.05,178.75,983.86,176.17,983.36Z" transform="translate(0 -677.77)"/><path class="ab" d="M186,950.37c3,3.33,6.79.58,10.17,1.24,2.76.53,5.75-.07,9,1.37-7.87,3.26-15.13,6-21.36,10.8-.84.64-2.18,3.13-3.51.24l13-9.09c-4.12-1.43-7.86.69-11.69.58-.48-1.7.87-2.74,1.47-4-.17-.94.49-1.11,1.17-1.26C184.86,949.52,185.45,949.57,186,950.37Z" transform="translate(0 -677.77)"/><path class="ac" d="M479,968.08l22,.37c-.36.26-.75.77-1.09.73-8.53-.88-15.26.73-15.73,11.18-1.79-2.67-4.45.27-6.47-1a5.34,5.34,0,0,1-1.85-3.75C476.16,972.8,474.42,969.11,479,968.08Z" transform="translate(0 -677.77)"/><path class="ad" d="M236.65,924.73a101.84,101.84,0,0,0,18.6,12.85c-3.65,1.34-4.94-.75-6.49-1.49-6.92-3.33-14.16-5.66-21.79-4.64-5.74.76-9.16-1.32-11.66-6,6.91,7,15.93,2.6,23.84,5C239.18,927.71,235.88,927.2,236.65,924.73Z" transform="translate(0 -677.77)"/><path class="ae" d="M224.3,1081c.57,4.73,1.72,9.8-5.73,9.88-.41-.74-.83-1.49-1.25-2.22s1-2.39-.84-2.51c-.47,0-1,1.27-1.55,2l-1.64-1.67c.52-7,1.8-8.22,9.06-8.92C224,1078.14,223.24,1080.08,224.3,1081Z" transform="translate(0 -677.77)"/><path class="af" d="M278.24,1048.29c-.63-.29.08-3.1-1.42-1.2-1.88,2.37-3.44,1.73-5.4.7-1.83-2.89-2.69-5.87-1-9.14,2.51-3.69,6.38-2,9.73-2.45a2.56,2.56,0,0,1,1.68.69Z" transform="translate(0 -677.77)"/><path class="ag" d="M269.56,1057.82c1.42-3.89,5.93-1.86,8.12-4.24.24,5.37.15,10.77,2.18,17A23.27,23.27,0,0,1,269.56,1057.82Z" transform="translate(0 -677.77)"/><path class="ah" d="M258.75,1056.18c1.26.39,1.36,1.48,1.55,2.53a3.84,3.84,0,0,1,1.28,2.26c.39,3.6.05,7.3,1.49,10.76a65.59,65.59,0,0,1-9.67,19.5,73.16,73.16,0,0,0,5.08-27.8Z" transform="translate(0 -677.77)"/><path class="ai" d="M212,909c.2,9-3,18.23,2.39,27,1.29,2.1,3.15,4.19,3.76,6.82-3.53,1.21-2.93-2.75-4.76-3.57C208,929.34,205.67,919.35,212,909Z" transform="translate(0 -677.77)"/><path class="aj" d="M468.05,981.91c-.73-5.59,1-11,1.32-16.49l6.79,2.65a39.74,39.74,0,0,1-.29,8.23c-.38,1.45-1.63,2.24-2.5,3.32C472,981.27,469,979.27,468.05,981.91Z" transform="translate(0 -677.77)"/><path class="ak" d="M177.57,968.75c.3,4.11-2.15,7.37-3.55,10.92-1,2.6-.88,3.85,2.23,3.61l-12.89,16C169.12,989.5,171.56,978.26,177.57,968.75Z" transform="translate(0 -677.77)"/><path class="al" d="M461.34,1015.89l-1.86,1.88a2.18,2.18,0,0,1-2.3-1.06c-.91-2-2.82-3.13-4-4.91-.75-3.63-4.33-6.43-3.17-10.64,4.94.65,4,6.21,8.18,9.22a71.24,71.24,0,0,0-.52-8.72c-.4-2.12.21-3,2.18-3.2Z" transform="translate(0 -677.77)"/><path class="am" d="M263.07,1071.73c-4.38-3.6-2.67-8.5-2.77-13,1.5-1.52,2.16-5,5.45-2.32C265.68,1061.65,265.26,1066.84,263.07,1071.73Z" transform="translate(0 -677.77)"/><path class="an" d="M440.39,1056.16c-5-3.43-10.6-4.52-16.56-4.1,2-5.35,6.7-4.3,10.76-4.54a14.18,14.18,0,0,1,7.24,1.64c2.14.94,1.46,2.86,1.53,4.51A4,4,0,0,1,440.39,1056.16Z" transform="translate(0 -677.77)"/><path class="ao" d="M281.83,1036.89a8.72,8.72,0,0,0-1,.06c-1.83-4.74.7-7.59,4.3-10a1.78,1.78,0,0,1,1.68.73c-1.18,7.76,3.11,13.82,6.29,20.23,1.67.69.35,1.65.23,2.5-4.77-2-6.34-6.46-8.35-10.69C284.44,1038.67,285.47,1034.86,281.83,1036.89Z" transform="translate(0 -677.77)"/><path class="ap" d="M186,950.37l-1.76-.16a35.05,35.05,0,0,1,19.11-10.74Z" transform="translate(0 -677.77)"/><path class="aq" d="M177.71,1021.72l1.54-1.55c3.15,5.25-.3,14.07-6,15.36A16.32,16.32,0,0,0,177.71,1021.72Z" transform="translate(0 -677.77)"/><path class="ar" d="M178.92,1062.37c-.77,7.94-.66,16-2.57,23.81C176.23,1078.13,174.65,1069.94,178.92,1062.37Z" transform="translate(0 -677.77)"/><path class="as" d="M443.36,1053.67c-2.37-.79.14-2-.25-3a5.12,5.12,0,0,1-1.14-5c1-2.68,2.11-5.27,5.33-6,1.33-.34,2.59-2.17,4-.2C445.9,1042.71,445.66,1048.78,443.36,1053.67Z" transform="translate(0 -677.77)"/><path class="at" d="M144.41,1050a39.49,39.49,0,0,0,14.62,3c-3-.2-1.57,3.15-3.57,3.59C152.25,1053.61,146.88,1054.23,144.41,1050Z" transform="translate(0 -677.77)"/><path class="au" d="M235.62,923.18a1.44,1.44,0,0,0,.35,1c-4.28-.56-8.25-2.84-12.78-2,4-1.74,8-3.4,12.15-.85A1.11,1.11,0,0,1,235.62,923.18Z" transform="translate(0 -677.77)"/><path class="av" d="M478.93,979.17c1.08-2.13,3.15-1.7,5-1.91l.21,3.1a86.26,86.26,0,0,1-8,3.62c-2.2.76-.95-1.09-1.05-1.89C475.4,979.84,477.41,979.83,478.93,979.17Z" transform="translate(0 -677.77)"/><path class="aw" d="M235.62,923.18l-.28-1.84c3.67-1.58,7.33,2.56,11,0l4.77,5.62C245.22,925.82,241.12,921.45,235.62,923.18Z" transform="translate(0 -677.77)"/><path class="ax" d="M183,951.47l-1.47,4L172.46,959C175.13,954.93,179.46,953.79,183,951.47Z" transform="translate(0 -677.77)"/><path class="ay" d="M180.65,1085.55l1.16,1v13.89l-1.14.15c-.52-2.34-1-4.69-1.58-7C180.82,1091.13,180,1088.2,180.65,1085.55Z" transform="translate(0 -677.77)"/><path class="az" d="M478.93,979.17c-.6,1.87-2.75,1.7-3.84,2.92-.39-1,0-2.4-1.72-2.47.19-1.11-.25-2.41.93-3.24a2.36,2.36,0,0,1,3.11-.09C477.69,977.37,477.42,978.74,478.93,979.17Z" transform="translate(0 -677.77)"/><path class="ba" d="M367.67,803.09c12.47-.38,21.06,4.42,30.19,7.08,1.08.31,2.22,1.12,1.85,2.46-.49,1.78-2.21,1.11-3.46,1.4-13.58,3.12-28.06.44-41.2,6.64s-26.64,11.2-34.26,24.72c-2.19,3.9-6.41,5.13-10,6.8-4,1.88-8.18-2-7.71-6.68,1.44-14.34,10.34-23.61,21.32-31.63C338.22,803.8,354.82,806,367.67,803.09Z" transform="translate(0 -677.77)"/><path class="bb" d="M282.28,892.45a14.41,14.41,0,0,1-4.42-.41c-4.17-1.29-4.93-5-1.61-7.59,10.87-8.57,23.07-14.06,37-15.34a16.17,16.17,0,0,1,4.76.24c6,1.25,6.79,3.47,3.08,8.27C315.69,884.57,295.93,892.47,282.28,892.45Z" transform="translate(0 -677.77)"/><path class="f" d="M418.38,882.82c4.07.7,6,3.95,8.24,6.88C422.7,888.81,419.1,887.54,418.38,882.82Z" transform="translate(0 -677.77)"/><path class="bc" d="M201.17,1054.92c1.48-5.66,7.06-9.47,7.39-16.68-6.31,7.06-9.25,15.24-14.35,23.63.48-12.64,4.83-22.48,10.89-32-3-.28-3.62,2.58-5.54,3.28-.24-4.41-1.87-8.52-2.79-12.78,1.63-9.09,3.94-17.86,3.71-27.49-.15-6.7,7.56-11.95,12.82-17,1.14-1.1,2.95-1.72,3.68-3,1.89-3.29-1.52-1-2.12-1.81-2.6.16-1.9-1.41-.89-2.24,2.94-2.4,4.1-6,6.29-8.85,3.75-.07,7.6.36,11.22-.34,3.86-.75-.22-1.61-.3-2.49-.29-2.64,2-2.69,3.52-3.38,6.33-2.8,13.14-3.83,19.86-5.08a43.74,43.74,0,0,0,9.64-3.44c4.12-1.08,6.77,1.71,9.8,3.64,2,1.28,2.91,4.17,5.82,4.07-1-5-3.37-8.92-7.94-11.33a3,3,0,0,1-1.25-2.46c2.31-7.52,8.92-10.25,15.19-12.85,4.79-2,6.73-4.8,6-9.74a7.6,7.6,0,0,1,6.64-2c4.63,1.16,9.33.81,14,.56.67-.29,1.19-.69.94-1.56-4-.88-6.36-6.66-11.54-3.66-2.57.68-4.74.38-5.93-2.37-.29-1.08-2.71-1.32-1.81-2.23s2.94-.62,4.48-.86c6.62-2.42,13.59-1.61,20.39-2.2,3.76,1.11,2.74,4.56,3.5,7.12-.07,2.94,3.62.15,3.93,2.52a20.7,20.7,0,0,0,13,4.15c5.09,0,9,2.59,12.56,5.87,1.67,2,4.65,3.81,2.69,7-1.62,2.6-4.5,1.57-6.95,1.33a24,24,0,0,1-6.69-1.49c-15.92-6.28-29.51-.37-42.51,8.24-3.42,2.27-4.17,6-3.64,9.8a29.08,29.08,0,0,1-.64,12.89c-.92,3,0,5.84.87,8.73,2.15,7.41-.05,13.36-4.76,19.6-6,8-12.93,12.89-22.8,15.51-7.63,2-12.21,10-18.49,15-3.81,3-7.53,5.84-12.09,7.65-6.18,2.45-10,7.9-14.24,12.56-5.4,5.9-10.55,12-15.65,18.22-1,1.22-1.82,2.87-3.75,2.5C200.76,1058.93,202.18,1056.3,201.17,1054.92Z" transform="translate(0 -677.77)"/><path class="bd" d="M436.25,899.34c4.75,4.42,8.44,9.91,13.76,13.76,2.58,11.9,11.18,20,18.15,29.17,3.33,4.39,5.7,9.51,8.43,14.33,1.14,2,.35,3.52-1.58,4.51-1.62.83-3.11,1.86-4.68-.42-2.72-4-6.2-5.31-11.25-4-2.71.73-5.41-2-8-3.42-2-1.13-3.62-3.87-6.56-2l-.67.6a5.05,5.05,0,0,1-5.4-3.79c.28-1.69-1.84-3-.82-4.8a9.3,9.3,0,0,1,7.9-.83c4.61,1.61,6.82.8,4.72-4.61a18.33,18.33,0,0,1-1.12-7.95c.49-8.44-1-16.26-8.66-21.69A10.08,10.08,0,0,1,436.25,899.34Z" transform="translate(0 -677.77)"/><path class="be" d="M296,907.57c2.14,1.12,4.28,2.2,6.79,1.24,5.3.28,9.68,2.67,13.71,5.89L315,916.12c-5.44-.62-10.88.35-16.32-.11-2.51-.68-4.64.77-6.95,1.22-1.25,1.51-3,1.88-4.82,2.32-.82.21-2.49.58-2.26.87,3.39,4.14.59,5.32-2.79,5.31-5.64,0-12.16,4.42-16.58-2.81.52-.43,1-1.19,1.57-1.23,5.76-.37,6.28-2.33,2.21-6.27-.8-.77-.62-2.55-.89-3.87l.51-.8a2.47,2.47,0,0,1,2.35-.64,9.92,9.92,0,0,0,2.42.84c-.8-.33-1.27-.84-1-1.78,6.43-5.18,13.42-2.25,20.21-1.21C294,908.15,295,909.29,296,907.57Z" transform="translate(0 -677.77)"/><path class="bf" d="M437.63,943.37c0,1.52,3.27,2.21,1.06,4.26-1.42.59-2.77.1-4.12-.27-.52-.17-1-.37-1.53-.59-1.07-.41-2.21-.11-3.31-.33-2.49-1.49-2.61-5-5.3-6.29-29.23-19.87-61.87-30.21-96.61-34.68-2.48-.32-5.08,0-7.17-1.82-7.4-1.32-14.68.68-22,.83l-4.61-2c15.4-1.42,30.39-2.35,44.72,0,22.39,3.63,44.42,9.76,64.63,20.82,3,1.63,5.82,3.76,9.51,3.53,7.1,2.14,12.65,7,18.81,10.76a10.3,10.3,0,0,1,4.61,5.73Z" transform="translate(0 -677.77)"/><path class="bd" d="M436.29,943.34l-23.42-16.49c6.16-.54,11.78.28,16,5.53a6.61,6.61,0,0,0,4.1,2.27C440.44,935.26,438.76,939.09,436.29,943.34Z" transform="translate(0 -677.77)"/><path class="bg" d="M268.2,911.55c-5.7.49-11.21.4-15-5,1-2.84,2.65-2.05,4.34-.66,2.24,2.54,5,2.6,8,1.77l.22-1.59c2.9,1,4.26,2.57,2.39,5.57Z" transform="translate(0 -677.77)"/><path class="g" d="M268.2,911.67a10.65,10.65,0,0,0-2.39-5.57,10.85,10.85,0,0,1,.64-7c.9,4.68,2.09,8.37,6.05,10.08l3.05,1.89C273.08,912.71,270.38,910.05,268.2,911.67Z" transform="translate(0 -677.77)"/><path class="bh" d="M265.59,907.69c-.38,4.09-3,2.45-4.85,1.65-1.36-.6-5.08.38-3.17-3.42Z" transform="translate(0 -677.77)"/><path class="bi" d="M265.65,946.1c-4.49,4.15-10.31,4.55-15.87,5.47a93.18,93.18,0,0,0-18.6,5.6c-4.91-.82-8.9-4.25-14-4.88,4.51-1,8.26-4.21,13.25-3.34-.66-4.81-5.94-6.74-6.16-13.65,10.4,11.46,21.4,10.81,32.87,5.5C260.58,941.64,264.81,941.15,265.65,946.1Z" transform="translate(0 -677.77)"/><path class="bj" d="M265.31,922.92c6.35,4.84,13-.06,19.71,1.1-1-3.12-5.06-2.2-5.39-5.81l12.13-1c3.33,3.08,4.35,6.27-.62,8.44-7.7,3.36-15.14,7-20.5,13.73-4.34,1.37-6.74-1.45-9.16-4.24-1-.74-2.94-1.59-.94-2.76,1.39-.81,3.5-.41,5.68-.58-1.48-2.51-3.25-4.63-4.08-7.07C260.55,920.11,264,923.07,265.31,922.92Z" transform="translate(0 -677.77)"/><path class="bk" d="M261.48,935.16c3.79-.17,5.6,3.91,9.16,4.24l1.61,1.3c6.36,3.16,7.6,9.56,9.76,15.38-3.2,1.43-4-1.79-5.72-3.07-3.39-2.56-6.24-5.91-10.64-6.91l-8.48-5.3Z" transform="translate(0 -677.77)"/><path class="bl" d="M220.26,960c1.25,5.19-3.09,7.65-5.4,11.09-4.52,2.39-9.62,2.22-14.18,3.6a1.51,1.51,0,0,1,0-2.54C206.86,967.56,212.2,961.57,220.26,960Z" transform="translate(0 -677.77)"/><path class="bm" d="M196.77,1020.39c3.44,3.71,6.14,7.58,2.79,12.78a14.51,14.51,0,0,1-9.66,6.59,18.15,18.15,0,0,0,0-6.89Q193.37,1026.63,196.77,1020.39Z" transform="translate(0 -677.77)"/><path class="bn" d="M190,1032.87c2.37,2.32,2,4.61,0,6.89-6,4.08-12.24,7.61-19.71,8.15-4,.29-2.15-1.23-.77-2.58C179.17,1046,185.19,1040.44,190,1032.87Z" transform="translate(0 -677.77)"/><path class="bd" d="M490,933.56c5.64,3,11.95,2.15,17.78,1.92a54.12,54.12,0,0,1,12.75,1.4c1.74.34,3.51,1.22,3.7,3.51.16,2.07-1,3.44-2.41,4.66-8.8,7.37-19.86,8.56-30.46,10.34-4.35.73-8.55-2.76-10.92-7a48.89,48.89,0,0,1-3.16-7.53c-1.35-3.78.07-6.29,4-5,3.78,1.21,6.12-.45,8.77-2.22Z" transform="translate(0 -677.77)"/><path class="bo" d="M458.42,964a50.71,50.71,0,0,0,.32,7.2c.56,3.19-1.55,2.42-3.18,2.51-1.63.66-2.72-.24-3.76-1.29a58.42,58.42,0,0,1-6-12.23c-.81-2.27-2.06-4.74.13-7,2.9,1.7,5.7,3.62,8.74,5A5.86,5.86,0,0,1,458.42,964Z" transform="translate(0 -677.77)"/><path class="bp" d="M466.78,965.35c-.42,4.66.07,9.46-2.34,13.83-5.41-3.78-1.65-10.56-4.62-15.2C461.85,961.21,462.52,961.34,466.78,965.35Z" transform="translate(0 -677.77)"/><path class="bq" d="M445.9,953.12c.53,7.18,4.82,12.92,7.4,19.32-5.86,3.08-9.58-.63-13.35-4.2a2.45,2.45,0,0,1,.41-1.8c2.26-.69,3.87-1.36,3.05-4.57s-2.48-7,1-10l.11-.5Z" transform="translate(0 -677.77)"/><path class="br" d="M477.41,976.29l-3.1.09q.92-4.15,1.85-8.31c.94-1.26,1.86-1.21,2.79,0C475.47,970.26,478.5,973.66,477.41,976.29Z" transform="translate(0 -677.77)"/><path class="bs" d="M320.65,903.65c32,1.35,61.76,10.4,89.72,25.74,5.59,3.06,10.93,6.58,16.38,9.89,1.41,3.52-1.31,4.2-3.49,4.22-7,0-14.17,1.8-20.91-1.63-.22-.11-.5-.66-.89-.09-3.34,4.8-4.57,5.51-9.92,4.27-4.14-.95-8.33-1.66-12.4-2.89,2.83.94,5.81,1.23,8.67,2,5.15,1.47,7,4.93,3.9,9.19-2.37,3.29-3.18,9.5-11.08,5.7-6.19-3-13.17,3.75-13.41,10.74a10.26,10.26,0,0,1-.06,3,12.49,12.49,0,0,1-.61,2.67c-.83,2.25,1.77,5.75-1.27,6.76-3.28,1.09-6-1.64-8.28-3.88a11.16,11.16,0,0,1-3.15-9.44c.83-4.21,1.45-8.46,2-12.71.21-1.53-.19-2.12-1.69-1.16-3.2-2.44-2.26-6.55-3.93-9.6.7-5.66-3.55-7.44-7.53-8.91-4.24-1.57-7.78-.24-10.66,3.59-6.74,8.94-12.8,18-11.36,30-5.36,1.38-4-5.58-9.3-6.09-4.24,14.93-11.92,29-21.26,42.13a102.09,102.09,0,0,0-12.49,17,8.34,8.34,0,0,1-9.6,1.82c-1.33-.44-2.65-.66-3.89.29a100.08,100.08,0,0,1-9,6.07,18.56,18.56,0,0,1-1.62.95c-9.54,4.51-19,9.18-25.51,17.94a9.56,9.56,0,0,1-1.78.67c-5.94,2.24-9.69,7.21-14.19,11.26-2.42,2.17-4.68,5.35-8.68,2.7a8.25,8.25,0,0,1-1.11-.05c-1-3.59-2.44-7.13-1.15-10.95,1.39.92.76,6.12,4.73.7,7.73-10.56,15.66-22.56,26.47-28.89,11.66-6.81,21-15.54,31.25-23.71a16.3,16.3,0,0,1,7.51-3.08c6.35-.93,11.39-2.32,14.07-9.58,1.71-4.62,8.9-6.45,8.8-13,0-1.12.84-2.51.42-3.33-4.5-8.65-.12-17.72-1.4-26.53-.89-6.09.82-10.73,7-14,7.51-3.95,14.74-7.91,23.43-8.9,5.59-.63,10.92-.81,16.1,1.46,2.75,1.21,5.41,2.52,8.51,2.16,1.95-.23,4.28,2.42,5.67.1,1.56-2.59-2.37-3.4-2.81-5.56-2.44-5.87-7.65-7.87-13.2-9.1-5.23-1.15-10.61-1.66-15.68-3.53C319.08,908.52,320.83,905.88,320.65,903.65Z" transform="translate(0 -677.77)"/><path class="bt" d="M365.86,973.36l-.12-2.57c.28-5.7,7.53-10.56,14.79-9.91,8,.71,9.43-.33,11.07-7.91,1.71-7.91,10.26-11.75,18.16-8.16,4.51,7.33,11.32,13.23,13.64,21.93.76,2.56-1.33,2.33-2.73,2.77-6.47,2.06-12.88,4.4-19.46,6.06-4.28,1.08-5.95,3.46-6,7.59h13.46c4.35,1.56-1.21,3.76.36,5.5a1.26,1.26,0,0,1,1.07.29c3.77,1.17,4.05,2.77.62,4.85-2.08-.11-3.44.23-1.5,2.54-1.43,2.27-3.17,1.44-4.92.5-5.29-4-4.38,2.83-6.77,3.87-2.35,3.94-8.88,3-9.9,8.48,1.86,11,1.6,22.24,3.69,33.21,1.24,6.15,4.29,11.83,3,18.61-1.69,8.94-4.59,11-12.88,7.58-1-.43-2.08-.9-3.16-1.24-7.1-5.75-13.13-12.57-19.22-19.33a38.66,38.66,0,0,1-7.35-4,9.49,9.49,0,0,1-1.53-2.51,16.25,16.25,0,0,0-2.48-3.22c-5.15-5.11-6.11-10.8-2.59-17.21a20,20,0,0,0,1.58-4.47c3.06-6.14,3-13.11,5.17-19.48,3.77-.67,3.5,2.51,3.47,4.36-.11,6.14,4.38,9.28,7.93,13,2.79,2.9,5.27,1.63,6-1.72,1.93-8.66,3.76-17.39,2.61-26.36a12.86,12.86,0,0,0-3.83-7.12C366.53,977.65,364.7,976.05,365.86,973.36Z" transform="translate(0 -677.77)"/><path class="bu" d="M423.4,966.74A169.35,169.35,0,0,1,409,945.94c.21-1.75.73-3,3-2.71a27.63,27.63,0,0,0,6.8,0c10.69-1.15,11.19-.63,10.3,10.93,1.53-2.69-.87-5.87,1.3-8.32.3-.9,0-2.38,1.55-2.24,1.31.12,1.47,1.34,1.67,2.39.34.86,0-.28.4.56,1.8,4.07,1.8,8.36,1.19,12.61-.64,4.49,6.35,4.35,5.15,9,4.41,1.11,7.88,5.08,12.93,4.31l2.26,1.24c2.27,2.35,5.91,3.55,6.37,8.25C448.14,978.62,436.71,970.17,423.4,966.74Z" transform="translate(0 -677.77)"/><path class="bv" d="M409.71,993.13c2.94-1.12,2.55-2.56.41-4.18,6.58-1,11.52,3.76,17.47,5,1.81.37,3.41,2.21,5.78.91-1.85-2.74-5.11-2.19-7.26-4,1.57-2.39,3.28-3.42,6.58-2.68,3.89.87,1.69,3.37,2.23,5.14a9.84,9.84,0,0,0,1.44,2.29l2.61,3.94c-7.12,5.06-14.08.59-21.07-.43C414.27,998.58,410.52,997.74,409.71,993.13Z" transform="translate(0 -677.77)"/><path class="bw" d="M409.05,988.66c-3.86-1.59,2.68-3.86-.36-5.5,3.35-2,7-.79,11.2-1.38-2,3.45-5.25,2.62-7.65,3.58,1.45,2,3.68-.15,5.24,1.42C414.72,988,411.24,985.61,409.05,988.66Z" transform="translate(0 -677.77)"/><path class="bx" d="M307.91,861.1c-4.73,3.63-9.14,5.15-13.73,6.47C294.76,860,294.76,860,307.91,861.1Z" transform="translate(0 -677.77)"/><path class="by" d="M224.3,1081l-1.46-2.92c-4-8.7-.1-16.43,2.9-24.28,7.21-1.79,12-8.18,19.18-10.06,2.45-.64,4.84-3,7.63-.8.81,1.85.86,3.56-.87,5a23.35,23.35,0,0,1-12.32,13.78c-3.78-1.15-3.62,2.73-5.36,4.2h0C229,1069.76,228.85,1076.81,224.3,1081Z" transform="translate(0 -677.77)"/><path class="bz" d="M251.68,1047.91l.3-5.49c-1.21-3.86-1.09-7.56,1.41-11a6.54,6.54,0,0,0,1.32-.11,1.67,1.67,0,0,1,2,.26c3.34,4.27,2.84,8.94,1.44,13.71-2.19,2.78.69,6.84-2.32,9.42C254.47,1052.46,253.07,1050.19,251.68,1047.91Z" transform="translate(0 -677.77)"/><path class="ca" d="M255.87,1054.74c0-3,0-6.09,0-9.14,1.37.25,2.33.88,2.37,2.43l.54,8.2A3.14,3.14,0,0,1,255.87,1054.74Z" transform="translate(0 -677.77)"/><path class="x" d="M234,1065.89a7.63,7.63,0,0,1,2.15-5.28c1.6-1.9,2.94-1.67,3.21,1.08Z" transform="translate(0 -677.77)"/><path class="cb" d="M378.31,1067.35c.64-.23,1.3-.7,1.91-.64,3.59.32,8.22,4.46,10.48.45a18.78,18.78,0,0,0,1.25-16c-.94-2.43-1.62-5-2.41-7.44a151.67,151.67,0,0,0-4-36.83c2.82-3.38,7.47-3.76,10.69-6.49,2.37-2.51,4.77-5,8.63-4.78,1.27.32,2.49,2.22,3.84.13,8.59,4.71,18.93,4.23,27.4,9.28l5.66,1.69c3,1.4,2.76,3.86,1.86,6.33-1.1,3-1.65,6.09-2.47,9.14s.54,6,.57,8.94c-.61,2.81-1.63,4.63-4.26,1.48-1.06-1.27-1.15-3-1.67-4.47-1.52-4.4-4.9-5.81-8.32-2.83-5.62,4.91-8.36,11.91-11.47,18.49-1,2.15.67,3.8,2.72,4.87,1.47.76,3.88.59,3.68,3.26a44,44,0,0,1-16.22,2.45c7.15,3.24,14.39,1.73,21.58.25,3.5-.72,6.5-.73,7.22,3.61.48,2.92,0,5.67-3.91,5.45-5.33-.3-10.94,1.94-16.4-1.34l3.48,5a1.68,1.68,0,0,1,.67,1.7c-.33.64-1.14,1.33-1.52,1-5.71-4.8-9.68-1.33-13.91,2.53-4.83,4.4-11,3.26-16.8,3.23A40.49,40.49,0,0,1,378.31,1067.35Z" transform="translate(0 -677.77)"/><path class="cc" d="M386.63,1075.82a3.29,3.29,0,0,1,3.48-1.67c6.67.81,12.11-1.28,16.28-6.61,4.48-5.73,8.14-.91,12,1,4.6.2,4.07,4.32,5.38,7-.29,4.77,1.27,9.7-1.25,14.28-5-5.81-11.44-7.45-18.8-6.79a23.38,23.38,0,0,1-11.9-1.77Z" transform="translate(0 -677.77)"/><path class="cd" d="M378.48,1078.12a77.93,77.93,0,0,1-9.31-1.9c-5.64-1.82-9.87.18-12.54,4.84-1.32,2.31-2.28,1.6-3.64,1a27.22,27.22,0,0,0-7.71-2.56c-10.15-1.63-10.13-1.77-7.08-12.37,4.55,3.13,10.42,2.55,15.17,5.46.2-2.3-.42-4.77,1.35-6.73,7.62-.73,14.34,1.9,20.53,5.92C377.31,1073.07,378.92,1075.23,378.48,1078.12Z" transform="translate(0 -677.77)"/><path class="ce" d="M355.19,1066v8.53c-4.71-1.38-8.65-3.11-12.92-3.1-3.07,0-3.86-1.79-4.06-4.31.16-1.29.33-2.57.5-3.86a2.71,2.71,0,0,1,1.59-.93c.44-.1.91-.09,1.33-.23,3.35-1.1,7.75,2.66,9.51.3,2.25-3,.52-7.81.71-11.84.07-1.57-.14-3.15-.22-4.73a2.89,2.89,0,0,1,.74-1.72c3.77-1.3,5.1,1.57,6.72,4-2.28,3.33,1.59,3.87,2.68,5.58a78.58,78.58,0,0,0,5.49,6.92c.16,3.76-2.47,3.74-4.91,3.28C359.47,1063.25,357.06,1063.51,355.19,1066Z" transform="translate(0 -677.77)"/><path class="cf" d="M391.85,1081.27c6.57-.1,13.16-.54,19.71-.21,5.45.28,10.35,2.08,11,8.77a6.32,6.32,0,0,1-5.55,3.53c-5.38-4-11.84-3.25-17.94-4.09a3.77,3.77,0,0,0-1.05-.12Z" transform="translate(0 -677.77)"/><path class="cg" d="M355.19,1066c-.78-4.36.69-5.64,5.11-4.42,2.15.58,5.26,3.16,7-1,7.63,5.07,12.79,12.49,19.46,20.3l-8.25-2.7C373.42,1068.88,363.2,1069.53,355.19,1066Z" transform="translate(0 -677.77)"/><path class="ch" d="M334.46,1071.42c-5-3.14-10.54-4.76-16.07-6.47-5.77-1.79-9.65-6.15-13.72-10.21-.29-.29.47-1.62.73-2.47,1.71-2.27,4.58-.43,6.53-1.88a3.49,3.49,0,0,1,1.81-.18,3.55,3.55,0,0,1,2,1.89,6.71,6.71,0,0,1,.21,1.84c2.33,5.63,8.38,5.12,12.66,7.46,2.81,1.54,5.77,2.5,7.09,5.74A4.69,4.69,0,0,1,334.46,1071.42Z" transform="translate(0 -677.77)"/><path class="ci" d="M339.68,1063a3.7,3.7,0,0,0-1,.23l-1.34-1.51-.77-.62a5,5,0,0,1-.54-2.93,35.34,35.34,0,0,0,.75-6.07c2-9.75,1.47-20,5.46-29.33a18.47,18.47,0,0,1,2.39-4.86,2.32,2.32,0,0,1,3.08-.27c0,.23.07.49,0,.67-4.68,8.74-2.61,16.14,4.46,22.55-3.06,2.84-4.58-1.73-7.36-1.49-.6,4.93-1.42,9.87-2.35,14.79C341.31,1057,342.73,1060.72,339.68,1063Z" transform="translate(0 -677.77)"/><path class="cj" d="M335.67,1067.14c-5.79-3.85-12.25-6.21-18.83-8.26-3.19-1-5.07-2.28-1.92-5.43.71-.56,1.57-1.17,2.43-.88,6.82,2.33,14.19,3.52,19.49,9.11l.53,0Q336.53,1064.43,335.67,1067.14Z" transform="translate(0 -677.77)"/><path class="ck" d="M203.43,1065.92c3.67.44,5.64-2.16,8-4.29,4.43-4.05,7.82-9.51,14.29-10.88-.78,7.88-6.59,13.23-10.1,19.71-1.87,3.44-2.92,7.84-7.42,9.29-3.1,1.28-.5,5.2-3.11,6.72C204.85,1079.59,205.78,1072.63,203.43,1065.92Z" transform="translate(0 -677.77)"/><path class="cl" d="M422.44,1052c-10.86-3.77-11.12-4.7-4.54-15.59,2-3.3,3.87-6.66,5.75-10,2.38-4.22,6.26-5,10.53-4.35s2.94,4.35,3.62,7c.2.78-1,5.36,2.77,2.1a2.9,2.9,0,0,1,2.45,2c1.24,4,.5,8-.06,12.07l.15,5.5c-6.52-.94-13.14-3.19-19.28,1.35Z" transform="translate(0 -677.77)"/><path class="cm" d="M399.06,1089.27c8.54-2.94,14.9-1.49,17.94,4.09C407.09,1097.14,405.21,1096.71,399.06,1089.27Z" transform="translate(0 -677.77)"/><path class="cn" d="M423.8,1075.55l-5.38-7a9.3,9.3,0,0,0-.23-1.17c2.82-.47,5.53-2,8.67-1Z" transform="translate(0 -677.77)"/><path class="co" d="M439.22,1022.32c-.24-5.37,5.19-9.81,2.58-15.58,2.78-1.81,4.52-5.14,8.23-5.58,2,3.42,4.45,6.67,4.38,10.92,2.7,2.9-.21,7,2.33,10.49.13.37.95-1,.21-.49-.33.24-.5.14-.63-.26-.77-2.35-1.68-4.74,1.95-5.52l1.21,1.47c.92,5.31,1.83,10.62,2.86,16.61-3.71-1.89-5.73-5.49-9.64-5.54-1,.61-2.21.34-3.3.55C443.54,1030.53,439.88,1028.62,439.22,1022.32Z" transform="translate(0 -677.77)"/><path class="cp" d="M436.14,1005.05c-9.54-1.91-19.57-2.34-27.4-9.28-.1-1.41-2.62-.94-2.07-2.52.12-.35,2-.1,3-.12,8.93,5.9,18.87,7.19,29.26,6.41C439,1001.88,437.32,1003.33,436.14,1005.05Z" transform="translate(0 -677.77)"/><path class="cq" d="M465.18,990.12c-5.32,4.51-10.58,9.27-19.92,5.12,7.29-.21,13-.69,17.09-5.59,1-1.2,2-.41,2.79.52Z" transform="translate(0 -677.77)"/><path class="cr" d="M208.17,1079.75l17.52-29h1.39a2.06,2.06,0,0,1,.14,2.88c-2.66,7.94-4.5,16-4.38,24.47-5.05.66-8.16,3.52-9.55,8.36-.07.42-.15.84-.23,1.25C204,1089.65,209.23,1082.75,208.17,1079.75Z" transform="translate(0 -677.77)"/><path class="cs" d="M288.88,1007c7-12.9,16.2-24.68,19.77-39.35.47-1.91,1.28-5.38,3.59-5,2.62.42,5.6,2.13,5.73,5.85.06,1.68,1.26,2.29,2.77,2.43,7,3.2,9.76,9.46,11.67,16.32-.8,7.37-6.91,13-6.76,20.69a4.64,4.64,0,0,1-.57,1.85,4.4,4.4,0,0,1-4.3,1.44c-1.94-.91.59-3.74-1.91-4.42-.5-.54-.89-1.18-1.61-1.4a50.26,50.26,0,0,1-11.69,16.71c-1.95,1.79-3.76,4.23-7.05,2.87a4,4,0,0,1-1-2.4c-.17,2.4-1.13,4.73-.62,7.2a4.89,4.89,0,0,1-.44,2.76,1.55,1.55,0,0,1-1.64.57c-3.37-.57-.73,3.6-3,3.86-5.77-.92-2.83-6.8-5.43-9.52l-.16-.2C284.8,1020.15,284.46,1013.24,288.88,1007Z" transform="translate(0 -677.77)"/><path class="ct" d="M294.82,1033.07a7.4,7.4,0,0,0,.84-.53c2.68-1.16,5.48-2,8.22-2.94,4.84-1.72,6.44-6.17,8.57-10.14,1.73-3.2,3.74-4.64,6.75-1.35a10.19,10.19,0,0,1,2.1,3.47c2.79,4.73,2.63,9.42.06,14.24s-2.65,11.13-7.78,14.69l-1.18.35c-3.18-4-7.84-5-12.47-6.09-1.83-.43-4.29.35-5-2.4Q294.86,1037.72,294.82,1033.07Z" transform="translate(0 -677.77)"/><path class="cu" d="M294.9,1042.37c4.43,0,8.51,1.79,12.76,2.62,3.62.7,5,2.4,4.74,5.87-1,7.21-5.19-1.7-7,1.41C298.47,1052.61,294.59,1049.71,294.9,1042.37Z" transform="translate(0 -677.77)"/><path class="cv" d="M286.35,1027.41c4.63,1.56,2.31,7.09,5.43,9.52.43,3.66,1.79,7.22,1.3,11C287.41,1042.21,282.75,1036.16,286.35,1027.41Z" transform="translate(0 -677.77)"/><path class="cw" d="M267.16,1024.64c3.35.39,6.81,1.55,9.65-1.44,1.65,6-1.12,10.61-4.38,15.14-2.32,2.94-.82,6.28-1,9.45-2.12-.13-3.69-2.33-6-1.6C262.52,1038.72,264.41,1031.64,267.16,1024.64Z" transform="translate(0 -677.77)"/><path class="cx" d="M267.16,1024.64l-1.77,21.55a6.81,6.81,0,0,1-4-2.39c-3.27-4.88.66-9.34.79-14a14.69,14.69,0,0,1,2.06-5.17C265.21,1023.09,266.19,1023.37,267.16,1024.64Z" transform="translate(0 -677.77)"/><path class="cy" d="M263.89,1030.16q-1.26,6.83-2.53,13.64c-1.62,1-.9,3.68-3.11,4.23l-2.37-2.43c3.33-4.72,1.6-9.41,0-14.11C258.51,1031,261.12,1030.1,263.89,1030.16Z" transform="translate(0 -677.77)"/><path class="cz" d="M439.22,1022.32c2.09,7.15,7.75,6.92,13.48,6.52-1.81,2.51-4.81.49-7.49,2l8.54,2.87c-1.6,2.94-4.11,3.15-6.56,3.46-3.46.58-4-2.44-5.35-4.4-.42-.55-.84-1.11-1.27-1.66A23,23,0,0,1,439.22,1022.32Z" transform="translate(0 -677.77)"/><path class="da" d="M441.84,1032.79l5.35,4.4c0,.87.08,1.73.11,2.59l-4.34,5.43C440.79,1041.24,441.65,1037,441.84,1032.79Z" transform="translate(0 -677.77)"/><path class="db" d="M272.43,1038.34l4.38-15.14A45.82,45.82,0,0,1,288.88,1007c-3,6.47,0,13.74-2.69,20.25-3.46,2.32-4.53,6-5.38,9.74C278.59,1040.86,274.85,1035.64,272.43,1038.34Z" transform="translate(0 -677.77)"/><path class="dc" d="M458.27,1016.3c-3.14,1.67.37,5.25-2.31,7.31-2.4-3.63-1.52-7.65-1.55-11.53C456.91,1012.37,458.54,1013.47,458.27,1016.3Z" transform="translate(0 -677.77)"/><path class="dd" d="M322.05,910.16c13,.07,25.24,2.16,33.71,13.56-1.77,1.23-3-1.74-4.83-.93-3.82-2.54-7.67-5-12.42-5.45a38.84,38.84,0,0,1-12.07-4.45c-1.47-1.3-3.31-1.09-5.06-1.26-.69-.06-1.23-.32-.58-1C321.06,910.31,321.62,910.3,322.05,910.16Z" transform="translate(0 -677.77)"/><path class="bs" d="M298.71,916c5.45-1.13,10.9-2.38,16.32.11A24.69,24.69,0,0,1,298.71,916Z" transform="translate(0 -677.77)"/><path class="bs" d="M282,956.08c-3.3-5.1-4.87-11.29-9.76-15.38C280.05,943,281.13,949.44,282,956.08Z" transform="translate(0 -677.77)"/><path class="bs" d="M316.45,914.7l-13.71-5.89c-.27-1-.56-3.07.66-2.3C307.74,909.24,313.65,909.56,316.45,914.7Z" transform="translate(0 -677.77)"/><path class="bs" d="M326.44,912.89a36.76,36.76,0,0,1,12.07,4.45c-4.93,1.82-8.27-2.37-12.48-3.3-.06,0-.1-.44,0-.63A2.14,2.14,0,0,1,326.44,912.89Z" transform="translate(0 -677.77)"/><path class="bo" d="M444.41,951.86c-1.19,5.45.88,10.55,2.22,15.57-2.84,1.46-4.19-.92-6.08-1.22-5.13-5.72-7.79-12.13-5.53-19.91l3.67,1.33Z" transform="translate(0 -677.77)"/><path class="de" d="M430.41,945.82c.38,9.47.38,9.47-6.26,9.86,6.56-1.87,4.57-6.88,3.47-10.4-1.15-3.68-5.26-1.95-7.66-1.07-3.62,1.32-7.79-1.71-10.92,1.73-5.49-2.92-14.57-.07-16.15,5.36a58.54,58.54,0,0,0-2.05,11.33c-.28,3.21-1.95,1.49-3.17,1.24-6-1.24-11.75-1.79-17.65,1.48a7.8,7.8,0,0,0-4.28,5.44c-1.14-6.31,5.8-11.16,10.82-12.52,4.42-1.2,5.87,1.34,8.67,2a5.36,5.36,0,0,0,1.33,0c-.71-4.81,6-6.49,4.9-11.26-.77-3.37-4.25-2.36-6.58-3.25-3.33-1.27-7.32-1.11-10.45-5,9.1,2.1,17.44,5.76,26.49,2.45-1.49-2-4.53-.86-5.33-4.33,8.57,2.95,17.08,3.35,25.65,2.8,2.08-.14,4.84.89,5.51-2.5C429.11,940.83,428.77,943.88,430.41,945.82Z" transform="translate(0 -677.77)"/><path class="df" d="M435,946.3c-1,7.44,2.2,13.69,5.53,19.92l-.18,1.91c-2.26-4.48-8.74-4.74-10.1-10.16,1.68-1.46,2.52,1.8,4.24.65a28.82,28.82,0,0,1-.88-12.64Z" transform="translate(0 -677.77)"/><path class="dg" d="M365.86,973.36c13.66,11.88,7.07,26.59,5.62,40.56a5.42,5.42,0,0,1-4.19,4.88c-2.6.73-3.8-1.23-5.63-2.71-6.2-5-8.3-11.69-9.44-19-1,.91-.25,3.55-2.85,2.84-1.63-1.84-.67-3.86-.41-5.81-.66-1.83-3.49-1-3.86-3.1a1.85,1.85,0,0,1,1.89-1.48c-.52-.13-1.08.1-1.58-.06-3.29-1.07-2.45-3.69-2.26-6.07.42-2.52,4-4.11,2.1-7.3-3.14-5.17-5.68-10.12-.09-15.59,2.36-2.31,1-6,.78-9.07.37-2.53-.69-5.59,2.57-7.08a2.79,2.79,0,0,1,2.31.86c4.08,2.49,1.8,7.31,3.83,10.55,3.4,4.34.17,9.06.77,13.56.79,8.66.79,8.66,10.4,13.74C364.34,979.41,364,976.27,365.86,973.36Z" transform="translate(0 -677.77)"/><path class="dh" d="M350.82,945.21a1.26,1.26,0,0,1-1-.45c-11.47-8.61-12-8.51-20.36,3.78C321,961,321,963.21,329.66,976c1.66,2.46,3.55,4.9,4.52,7.64,1.95,5.5,5.68,7.84,11.28,7.76,1.67,1.06,4.6-2.14,5.48,1.62a10.35,10.35,0,0,1-8.16,2.8c-5.07-.6-6.91,1.85-7.54,6.21-.41.57-1,1-1.65.71s-1.3-.6-1.41-.23a6.39,6.39,0,0,1-3.67,4.48,1.58,1.58,0,0,1-1.72-.92c-1-6.95,4.49-12.19,4.87-18.78-2.52-6.21-6.83-11.22-10.92-16.38-2.54-6.52-2.67-12.73,1.76-18.68,3.28-4.41,5.9-9.32,9.35-13.57,4.86-6,17.55-4,20.12,2.91A3.07,3.07,0,0,1,350.82,945.21Z" transform="translate(0 -677.77)"/><path class="di" d="M227.22,1053.62c-.05-1-.09-1.92-.14-2.88,4.36-8,12.06-11.93,19.64-16,2.18-1.17,4.44-2.2,6.67-3.3-.57,3.65.77,7.53-1.41,11-6.65,3.56-14.34,5.26-19.74,11.12C230.83,1055.08,228.91,1054.5,227.22,1053.62Z" transform="translate(0 -677.77)"/><path class="di" d="M263.89,1030.16c-2.45,1.91-4.7,5-8.06,1.33-.38,0-.75-.08-1.13-.14l9.51-6.75C264.1,1026.45,264,1028.31,263.89,1030.16Z" transform="translate(0 -677.77)"/><path class="dj" d="M355.42,969.32q-.37-6.78-.76-13.56c.54-2.72,1.55-2.81,2.32-.21C358.4,960.31,356.74,964.81,355.42,969.32Z" transform="translate(0 -677.77)"/><path class="dk" d="M341.08,1053.23c.74-6.19,1.48-12.38,2.25-18.71,4.22.84,4.2,6.81,8.84,6.33.07,1.07.13,2.14.2,3.22,0,.34.07.68.11,1,1,2.64.3,5.38.49,8.07.26,3.69-2.15,5-5.11,4.72S340.38,1059,341.08,1053.23Z" transform="translate(0 -677.77)"/><path class="dl" d="M385.58,1006.91c1.21-.24,2.35-.21,2.48,1.35q1.41,16.32,2.73,32.64c.1,1.13.09,2.3-1.25,2.84Z" transform="translate(0 -677.77)"/><path class="dm" d="M349.82,1000.18c1.17-.75.58-2.86,2.4-3.11-.14,7.15-.3,14.29-4.48,20.56h-1.85C345,1011.32,346.85,1005.63,349.82,1000.18Z" transform="translate(0 -677.77)"/><path class="dn" d="M404.9,995.64c-2.16,2.89-6.26,2.29-8.63,4.78,1-2.95,3.47-5.32,3-8.82C402.41,991.83,403.11,994.45,404.9,995.64Z" transform="translate(0 -677.77)"/><path class="do" d="M341.08,1053.23c2.11,4.45,6.16,3.09,9.36,2.53,3-.53,1.62-3.75,1.84-5.87.16-1.59.14-3.2.2-4.8,2.53,6.84.67,13.83,1.24,21.46-4.82-2.62-9.5-2.76-14-3.56C340.25,1059.75,339.47,1056.32,341.08,1053.23Z" transform="translate(0 -677.77)"/><path class="dp" d="M336.84,1061.68l-21.92-8.23c0-.52,0-1,0-1.56a2.18,2.18,0,0,1,1.38-3.28c6.11-.76,11.45,1.9,16.94,3.9,3,1.1,3.72,3.6,3.9,6.42C337,1059.85,336.92,1060.76,336.84,1061.68Z" transform="translate(0 -677.77)"/><path class="dq" d="M316.57,1049.4l-1.69,2.49-1.3-1.38c2.19-5.44,3.91-11.15,6.73-16.25,2.59-4.71,1.72-8.44-1-12.37a2.12,2.12,0,0,1,1.68-.75c2.94,1.06,4.33,3.73,6.2,5.93,1.85,3.12-1.29,4.34-2.4,6.36-2.31,4.19-3.13,9-5.63,13.16A6.34,6.34,0,0,1,316.57,1049.4Z" transform="translate(0 -677.77)"/><path class="dr" d="M317.75,1046.57c2.17-6.61,4.59-13.11,8.26-19.06-1-3.12,1.15-5.88,1-8.91.2-3.09.65-6.1,2.43-8.74.68-1.35,4.16.51,3.2-3-.45-1.62.4-3.41,1.56-4.82-.73-5.65.2-9.31,7.44-7.71,2.95.65,5.94-2.44,9.31-1.36-.06,2.45-2.16,4.58-1.12,7.19a48,48,0,0,1-3.93,17.46c-5.26,11.33-4.68,23.9-7.56,35.74C331.65,1050.56,325,1047.75,317.75,1046.57Z" transform="translate(0 -677.77)"/><path class="ds" d="M317.75,1046.57c8.23-1.87,14.86,1.11,20.58,6.81a9.68,9.68,0,0,1-1.23,5.55c-4-7.21-11.47-7.1-18.15-8.62-.89-.2-1.78-.08-2.38-.91C316.71,1048.35,316.61,1047.2,317.75,1046.57Z" transform="translate(0 -677.77)"/><path class="dt" d="M304.75,1031.11c-3,.87-5.83,2.41-9.09,1.43,0-.86,0-1.73,0-2.59-.85-2.83.6-4.28,3.07-5.12,9.33-4.8,13.85-13.47,18.08-22.38.06-.13.45-.2.63-.15s.33.3.49.47C318.55,1014.55,312.24,1023.11,304.75,1031.11Z" transform="translate(0 -677.77)"/><path class="du" d="M328.76,1018.8c.67,3.41-1.41,5.94-2.75,8.71-2.79-1.16-2.84-4.75-5.41-6.11a3.3,3.3,0,0,1-.19-1.89c-.7-4.36,1.5-7.5,4.37-10.36a3.76,3.76,0,0,0-.27-.94c.84-1.54,1.73-3,3.82-1.66l.12-.24a2,2,0,0,1,1.32,1.28C329.94,1011.37,326.86,1014.86,328.76,1018.8Z" transform="translate(0 -677.77)"/><path class="dv" d="M304.75,1031.11c7.12-8.17,10.24-18.22,13.16-28.34,1.73.82,1.25,2.45,1.39,3.85-.27,4.26,1,8.6-.73,12.78-1.69-1.43-3.11-3-4.41.61C312.45,1024.79,309.75,1029,304.75,1031.11Z" transform="translate(0 -677.77)"/><path class="dw" d="M328.33,1006.55l-3.82,1.66c-1.17-8.19,4.69-14,7.15-20.94,1,5.3-2,9.7-3.37,14.46C327.8,1003.41,326.24,1005,328.33,1006.55Z" transform="translate(0 -677.77)"/><path class="dx" d="M318.57,1019.4c-1.95-4.39-1.31-8.62.73-12.78,2.45-.9,2.45-.9,1.71,4a18.75,18.75,0,0,1-.34,9.83,2.2,2.2,0,0,0-.07,1l-1.29.49C319.06,1021.06,318.82,1020.23,318.57,1019.4Z" transform="translate(0 -677.77)"/><path class="t" d="M298.71,1024.83l-3.07,5.12c-2.36-4.74,1.43-7.68,3.7-11.18Z" transform="translate(0 -677.77)"/><path class="dq" d="M320.67,1020.41c-.06-3.28-.79-6.58.34-9.83l3.77-1.43Z" transform="translate(0 -677.77)"/><path class="dy" d="M345.46,991.37c-5.49,3.12-9.26,2.53-11.43-4.25-1.53-4.77-4.8-8.77-7.93-12.75-6.22-7.92-6.32-14.06-.75-22.49,2-3,3.78-6.29,6-9.21,6.71-9,13.1-8.2,18.47,2.09-3.76.4-.81,4.1-2.66,5.44-3.58-.41-5.5-7.2-10.35-2.68a22.7,22.7,0,0,1-4.55,4.09c-4.88,2.9-4.17,5.78,0,8.64-.19,6.4.1,12.69,4.12,18.14.85,4.31,3.78,5.36,7.69,4.9.34,3.21.25,6.8,5.38,6Z" transform="translate(0 -677.77)"/><path class="dz" d="M335.78,946.13c6.33-5.76,8.49.12,11.34,4.07,1.34,5.43,2.59,10.78-3.22,14.73-2,1.36-1.08,3.16-.09,4.81,1.26,2.11,3.43,3.82,3,6.68l-.91.27c-7.18-5.21-7.88-7.89-3.89-15.39a11.77,11.77,0,0,0,1.16-4.53C345.07,950.2,340,948.49,335.78,946.13Z" transform="translate(0 -677.77)"/><path class="ea" d="M344.07,983.29c-5.64,4.14-7.83,1.1-8.89-4.28a2.51,2.51,0,0,1,1.82-.23c4.19,2.88,6.86-.46,9.87-2.41l-.09,0C348.41,979.48,348.41,979.48,344.07,983.29Z" transform="translate(0 -677.77)"/><path class="du" d="M334.19,1002.06c.46,2.68.63,5.32-.7,7.86s-1.9.1-2.77-.35c-1.85-.19.85-3.25-1.84-2.91l-.43-.35c1-2.86,3.88-4.85,4.16-8.32C333.13,999.35,333.66,1000.7,334.19,1002.06Z" transform="translate(0 -677.77)"/><path class="eb" d="M328.88,1006.66c.8-.21,2-.84,2.31-.54,1.41,1.21-.62,2.23-.47,3.45q-1,4.62-2,9.24C325.3,1014.72,329.43,1010.71,328.88,1006.66Z" transform="translate(0 -677.77)"/><path class="ec" d="M335.78,946.13c8.05-.37,10.9,3.36,8.44,11.06-1.93,1.78-4.51.53-6.62,1.43-2,.26-3.59,2.21-5.82,1.3-2.42,1-4.73.85-5.37-2s.64-5.87,3.16-6.89C332.28,949.91,333.8,947.86,335.78,946.13Z" transform="translate(0 -677.77)"/><path class="ed" d="M331.78,959.92c2-.8,3.19-3,5.61-2.88-4.7,7.05-1,14.71-1.58,22.06l-.34.18-.28-.26C330.32,973.31,328.78,967,331.78,959.92Z" transform="translate(0 -677.77)"/><path class="ee" d="M335.81,979.1c-.47-1.73-.63-3.62-1.45-5.15-3.53-6.52-2.47-12.08,3-16.91,2.32-1.91,4.55,0,6.83.15.58,1.34,2.17,2.64.35,4.15-7.61,6.3-2.1,10.58,2.3,15C342.11,984.11,340.36,984.54,335.81,979.1Z" transform="translate(0 -677.77)"/></svg>