<svg xmlns="http://www.w3.org/2000/svg" xmlns:xlink="http://www.w3.org/1999/xlink" viewBox="0 0 1920 564.71"><defs><style>.a{fill:#1a1c1f;}.b{fill:url(#a);}.c{fill:url(#b);}.d{fill:url(#c);}.e{fill:url(#d);}.f{fill:url(#e);}.g{fill:#fff;}.h{fill:#ccc;}</style><linearGradient id="a" x1="344.3" y1="908.6" x2="478.68" y2="908.6" gradientUnits="userSpaceOnUse"><stop offset="0" stop-color="#f3a879"/><stop offset="0.06" stop-color="#f3ad79"/><stop offset="0.37" stop-color="#f3c379"/><stop offset="0.81" stop-color="#f1c579"/><stop offset="1" stop-color="#ebc979"/></linearGradient><linearGradient id="b" x1="321.51" y1="1036.4" x2="469.79" y2="950.79" gradientUnits="userSpaceOnUse"><stop offset="0" stop-color="#95f385"/><stop offset="0.06" stop-color="#9ef184"/><stop offset="0.34" stop-color="#c3e77f"/><stop offset="0.59" stop-color="#dde17c"/><stop offset="0.82" stop-color="#eddc7a"/><stop offset="1" stop-color="#f3db79"/></linearGradient><linearGradient id="c" x1="235.75" y1="1043.56" x2="371.95" y2="1043.56" gradientUnits="userSpaceOnUse"><stop offset="0" stop-color="#79aaf3"/><stop offset="0.15" stop-color="#7bafea"/><stop offset="0.39" stop-color="#7fbdd1"/><stop offset="0.69" stop-color="#87d4a9"/><stop offset="1" stop-color="#90f079"/></linearGradient><linearGradient id="d" x1="269.67" y1="937.71" x2="430.24" y2="845.01" gradientUnits="userSpaceOnUse"><stop offset="0" stop-color="#f37979"/><stop offset="0.5" stop-color="#f3a879"/></linearGradient><linearGradient id="e" x1="186.25" y1="985.28" x2="307.11" y2="985.28" gradientUnits="userSpaceOnUse"><stop offset="0" stop-color="#b379f3"/><stop offset="1" stop-color="#7bb1e7"/></linearGradient></defs><rect class="a" width="1920" height="564.71" rx="41.34"/><path class="b" d="M483.39,953.82h0q-.43-6.07-1.37-12A141.19,141.19,0,0,0,477,920.36q-1.56-4.89-3.46-9.61a142.93,142.93,0,0,0-14.09-26.6c-.35-.52-.69-1-1-1.55a144.16,144.16,0,0,0-58-48.8c1.15-.4,2.33-.74,3.52-1a73.65,73.65,0,0,0-54.47,46.83,50.87,50.87,0,0,1,22.81,8.61c-.3-1-.55-2-.77-3a68.19,68.19,0,0,1,23,25.13v0c.42.79.82,1.59,1.21,2.39.62,0,1.24,0,1.87,0a86.84,86.84,0,0,1,74.61,42.34,85.25,85.25,0,0,1,7.17,15.13,41.7,41.7,0,0,1,1.68,5.14.37.37,0,0,1,0,.09,43.64,43.64,0,0,1,1.35,9c.1-.76.21-1.53.31-2.3,0,0,0,0,0,0a146.21,146.21,0,0,0,1.11-18Q483.76,958.93,483.39,953.82Z" transform="translate(0 -677.77)"/><path class="c" d="M471.61,954A86.84,86.84,0,0,0,397,911.63c-.62,0-1.24,0-1.87,0,.58,1.19,1.12,2.39,1.63,3.62a68.06,68.06,0,0,1,1.67,46.91c-.66,2-1.43,4-2.27,6q-1.25,2.51-2.62,4.93a95.1,95.1,0,0,1-9.19,13.34c-1.71,2.08-3.5,4.09-5.38,6a95.89,95.89,0,0,1-15.31,12.74,87.13,87.13,0,0,1-.59,73.38q-.17.38-.36.75h0a43.75,43.75,0,0,1-4.93,8.76c-1.1,1.73-2.28,3.42-3.5,5.06a161.21,161.21,0,0,0,26.08-9.3h0a162.63,162.63,0,0,0,54.51-40.58h0a163.39,163.39,0,0,0,11.32-14.46,161.26,161.26,0,0,0,27.31-69.3,43.88,43.88,0,0,1,5.27,9.6A85.15,85.15,0,0,0,471.61,954Z" transform="translate(0 -677.77)"/><path class="d" d="M364.13,1004.84a94.33,94.33,0,0,1-50.59,15.9l-2,0c-1.86,0-3.71,0-5.55-.16a87,87,0,0,1-58.26,39.17,40.89,40.89,0,0,1-4.16.63h0c-2.55.32-5.15.53-7.77.63.47.5.95,1,1.43,1.49a160.78,160.78,0,0,0,44.33,16.33,163.37,163.37,0,0,0,77.55-2.7q2.9-.83,5.75-1.75c-.38,1.29-.82,2.56-1.31,3.79l.05,0a87.08,87.08,0,0,0,.58-73.38Z" transform="translate(0 -677.77)"/><path class="e" d="M398.39,822.74h0a115,115,0,0,0-27-3.2c-3.6,0-7.17.17-10.68.5-1,.09-2,.19-3,.31l-.33,0q-2.73.33-5.42.79h0c-1.54.26-3.06.55-4.57.87l-.1,0a138.74,138.74,0,0,0-35.24,12.39h0a79.61,79.61,0,0,0-44.71,51.3h0a78.14,78.14,0,0,0-2,9.09,76.49,76.49,0,0,0-.83,7.91c-.09,1.49-.13,3-.13,4.52a79.09,79.09,0,0,0,1.33,14.53,76.36,76.36,0,0,0,2.7,10.51,79.59,79.59,0,0,0,32.18,41.61h0a65.79,65.79,0,0,0,13.61,4.88c2,.47,4.08.86,6.17,1.15a65.85,65.85,0,0,0,9.16.63c1.13,0,2.25,0,3.37-.09a51.22,51.22,0,0,1,11.37-101.17,52.29,52.29,0,0,1,6.17.37A73.63,73.63,0,0,1,405,832.89h0a43.63,43.63,0,0,1,5.76-1q2.14-.24,4.35-.27h0c1.48-.09,3-.14,4.46-.14,1,0,1.92,0,2.87.06A113.64,113.64,0,0,0,398.39,822.74Z" transform="translate(0 -677.77)"/><path class="f" d="M305.57,1020.57h0c-3.41-.44-6.79-1-10.11-1.7-3.78-.77-7.51-1.71-11.17-2.79s-7.28-2.33-10.83-3.71l0,0h0l-.05,0-.05,0q-2.85-1.11-5.64-2.36h0a137.18,137.18,0,0,1-43.13-30.22c-1.07-1.11-2.13-2.24-3.16-3.39a136.71,136.71,0,0,1-32.77-65.62,137.84,137.84,0,0,0,11.75,86.15c1,2.08,2.12,4.14,3.25,6.17h0c.8,1.42,1.61,2.82,2.45,4.21a137.94,137.94,0,0,0,52.06,49.61,44,44,0,0,1-9.27,3,87,87,0,0,0,58.26-39.18Z" transform="translate(0 -677.77)"/><path class="g" d="M566.3,834.13h44.93q23.06,0,36,11.75,16,14.39,16,40.08,0,26.58-15,41.11-12.48,12.2-37.15,12.19H566.3Zm27.46,22.61v59.91h15.12q12.92,0,19.09-6.61,7.34-8.07,7.34-23.2,0-17.18-10.13-25-6.9-5.13-18.21-5.14Z" transform="translate(0 -677.77)"/><path class="g" d="M734.71,834.13V939.26H707.25V834.13Z" transform="translate(0 -677.77)"/><path class="g" d="M863.76,865.7H837.63q-.58-12.91-16.88-12.92-14.25,0-14.25,9.25a6.43,6.43,0,0,0,3.82,6.17q3.23,1.6,20.7,6,16.59,4.27,24.08,9Q868,891.11,868,907q0,17.32-13.65,26.72-11.89,8.22-31.28,8.22-23.49,0-35.82-11.3-10.87-9.84-11.16-26.73h27.6q.88,16.74,20.41,16.74,16,0,16-10.72a8,8,0,0,0-4.19-7.41q-4.19-2.43-20.77-7.12-20.13-5.73-27-11.6-8.07-6.9-8.07-20,0-15.56,12.92-24.52,11.29-7.78,28.92-7.78,21,0,32,10.13Q863.47,850.43,863.76,865.7Z" transform="translate(0 -677.77)"/><path class="g" d="M1008,898.29a46.6,46.6,0,0,1-11.31,28.34q-13.07,15.27-37.29,15.27-25.85,0-40.09-17.91-12.18-15.12-12.18-37.44,0-23.06,13.95-38.76,14.54-16.31,39.2-16.3,20.55,0,34.21,12.77a39.23,39.23,0,0,1,12.77,27H980.49q-1.62-7.2-5-10.87-5.73-6.3-15.71-6.31-12.35,0-19.09,9.84Q935,872.6,935,886.7q0,16.29,7.34,25,6.47,7.64,17.18,7.63,11,0,16.74-8.08,3.09-4.4,4.26-12.92Z" transform="translate(0 -677.77)"/><path class="g" d="M1098.24,831.49q24.52,0,39,17.32,12.48,15.13,12.49,37.89,0,26.28-16.16,41.69-14.08,13.51-35.38,13.51-25,0-39.64-17.32Q1046,909.6,1046,886.7q0-26.3,15.56-41.12Q1076.51,831.5,1098.24,831.49Zm-.15,22.61a21,21,0,0,0-18.5,10q-5.71,8.52-5.72,22.47,0,16.29,7.34,25.11,6.45,7.64,17,7.63,11.16,0,17.47-8.74t6.32-24.44q0-16-7.35-24.52A20.65,20.65,0,0,0,1098.09,854.1Z" transform="translate(0 -677.77)"/><path class="g" d="M1193.67,834.13h51.83q16,0,24.37,5,14.25,8.37,14.25,25.4a28.5,28.5,0,0,1-4.41,15.71,25.14,25.14,0,0,1-11.89,10,17.71,17.71,0,0,1,10.57,7.93,26,26,0,0,1,3.6,8.44q.94,4.33,2.27,19.6,1,9.69,2.65,12l.88,1h-28q-1.32-3.09-3.08-22-1.17-9.54-5.28-13.28T1238,900.2h-16.88v39.06h-27.46Zm27.46,21.59v24.81h19.38q16.59,0,16.59-12.63,0-12.18-16.88-12.18Z" transform="translate(0 -677.77)"/><path class="g" d="M1333.3,834.13h44.93q23.05,0,36,11.75,16,14.39,16,40.08,0,26.58-15,41.11-12.48,12.2-37.15,12.19H1333.3Zm27.46,22.61v59.91h15.12q12.91,0,19.09-6.61,7.33-8.07,7.34-23.2,0-17.18-10.13-25-6.9-5.13-18.21-5.14Z" transform="translate(0 -677.77)"/><path class="g" d="M1522,831.49q24.51,0,39,17.32,12.48,15.13,12.48,37.89,0,26.28-16.15,41.69-14.08,13.51-35.38,13.51-25,0-39.64-17.32-12.63-15-12.63-37.88,0-26.3,15.56-41.12Q1500.25,831.5,1522,831.49Zm-.15,22.61a21,21,0,0,0-18.5,10q-5.73,8.52-5.72,22.47,0,16.29,7.34,25.11,6.45,7.64,17,7.63,11.16,0,17.47-8.74t6.31-24.44q0-16-7.34-24.52A20.65,20.65,0,0,0,1521.82,854.1Z" transform="translate(0 -677.77)"/><path class="g" d="M1665.42,831.49q24.51,0,39,17.32Q1717,863.95,1717,886.7q0,26.28-16.15,41.69-14.1,13.51-35.38,13.51-25,0-39.65-17.32-12.63-15-12.62-37.88,0-26.3,15.56-41.12Q1643.68,831.5,1665.42,831.49Zm-.15,22.61a21,21,0,0,0-18.5,10q-5.73,8.52-5.73,22.47,0,16.29,7.34,25.11,6.46,7.64,17,7.63,11.14,0,17.47-8.74t6.31-24.44q0-16-7.34-24.52A20.65,20.65,0,0,0,1665.27,854.1Z" transform="translate(0 -677.77)"/><path class="h" d="M670.37,1009.47l-21.67,78.76H628.13L622,1061.72q-1.65-6.71-3.3-17.38-1.09-6.71-1.87-10.67l-1.65,10.45q-1.2,8.36-3.19,17.27L606,1088.23h-20.9l-21.45-78.76h20.68l5.94,25.41a311.1,311.1,0,0,1,5.5,32.12q2.21-17.05,5.5-31.79l5.94-25.74h19.58l5.5,24.2q3.86,17.16,5.83,33.33a312.37,312.37,0,0,1,6.16-34.54l5.39-23Z" transform="translate(0 -677.77)"/><path class="h" d="M742,1009.47l29.48,78.76H750.12l-5.06-14.41H717.78l-5.06,14.41H691.6l29.48-78.76Zm-1.65,49.61-3.74-10.67a164,164,0,0,1-5.06-17.71q-2.21,8.58-5.39,17.93l-3.63,10.45Z" transform="translate(0 -677.77)"/><path class="h" d="M820.85,1009.47v78.76H800.28v-78.76Z" transform="translate(0 -677.77)"/><path class="h" d="M915.45,1009.47v16.94H877.83v15.4h32.56v16.06H877.83v30.36H857.26v-78.76Z" transform="translate(0 -677.77)"/><path class="h" d="M982.44,1007.49q18.36,0,29.26,13,9.34,11.33,9.35,28.38,0,19.7-12.1,31.24-10.56,10.13-26.51,10.12-18.71,0-29.7-13-9.47-11.22-9.46-28.38,0-19.69,11.66-30.8Q966.16,1007.49,982.44,1007.49Zm-.11,16.94a15.71,15.71,0,0,0-13.86,7.48q-4.29,6.38-4.29,16.83,0,12.21,5.5,18.81a15.9,15.9,0,0,0,12.76,5.72,15.24,15.24,0,0,0,13.09-6.55q4.72-6.54,4.73-18.31,0-12-5.5-18.37A15.48,15.48,0,0,0,982.33,1024.43Z" transform="translate(0 -677.77)"/><path class="h" d="M1089.91,1007.49q18.36,0,29.26,13,9.35,11.33,9.35,28.38,0,19.7-12.1,31.24-10.56,10.13-26.51,10.12-18.71,0-29.7-13-9.46-11.22-9.46-28.38,0-19.69,11.66-30.8Q1073.63,1007.49,1089.91,1007.49Zm-.11,16.94a15.71,15.71,0,0,0-13.86,7.48q-4.29,6.38-4.29,16.83,0,12.21,5.5,18.81a15.9,15.9,0,0,0,12.76,5.72,15.26,15.26,0,0,0,13.09-6.55q4.73-6.54,4.73-18.31,0-12-5.5-18.37A15.48,15.48,0,0,0,1089.8,1024.43Z" transform="translate(0 -677.77)"/></svg>