<svg xmlns="http://www.w3.org/2000/svg" xmlns:xlink="http://www.w3.org/1999/xlink" viewBox="0 0 1920 564.71"><defs><style>.a{fill:#1a1c1f;}.b{fill:url(#a);}.c{fill:url(#b);}.d{fill:url(#c);}.e{fill:url(#d);}.f{fill:url(#e);}.g{fill:#fff;}.h{fill:#ccc;}</style><linearGradient id="a" x1="344.3" y1="908.6" x2="478.68" y2="908.6" gradientUnits="userSpaceOnUse"><stop offset="0" stop-color="#f3a879"/><stop offset="0.06" stop-color="#f3ad79"/><stop offset="0.37" stop-color="#f3c379"/><stop offset="0.81" stop-color="#f1c579"/><stop offset="1" stop-color="#ebc979"/></linearGradient><linearGradient id="b" x1="321.51" y1="1036.4" x2="469.79" y2="950.79" gradientUnits="userSpaceOnUse"><stop offset="0" stop-color="#95f385"/><stop offset="0.06" stop-color="#9ef184"/><stop offset="0.34" stop-color="#c3e77f"/><stop offset="0.59" stop-color="#dde17c"/><stop offset="0.82" stop-color="#eddc7a"/><stop offset="1" stop-color="#f3db79"/></linearGradient><linearGradient id="c" x1="235.75" y1="1043.56" x2="371.95" y2="1043.56" gradientUnits="userSpaceOnUse"><stop offset="0" stop-color="#79aaf3"/><stop offset="0.15" stop-color="#7bafea"/><stop offset="0.39" stop-color="#7fbdd1"/><stop offset="0.69" stop-color="#87d4a9"/><stop offset="1" stop-color="#90f079"/></linearGradient><linearGradient id="d" x1="269.67" y1="937.71" x2="430.24" y2="845.01" gradientUnits="userSpaceOnUse"><stop offset="0" stop-color="#f37979"/><stop offset="0.5" stop-color="#f3a879"/></linearGradient><linearGradient id="e" x1="186.25" y1="985.28" x2="307.11" y2="985.28" gradientUnits="userSpaceOnUse"><stop offset="0" stop-color="#b379f3"/><stop offset="1" stop-color="#7bb1e7"/></linearGradient></defs><rect class="a" width="1920" height="564.71" rx="41.34"/><path class="b" d="M483.39,953.82h0q-.43-6.07-1.37-12A141.19,141.19,0,0,0,477,920.36q-1.56-4.89-3.46-9.61a142.93,142.93,0,0,0-14.09-26.6c-.35-.52-.69-1-1-1.55a144.16,144.16,0,0,0-58-48.8c1.15-.4,2.33-.74,3.52-1a73.65,73.65,0,0,0-54.47,46.83,50.87,50.87,0,0,1,22.81,8.61c-.3-1-.55-2-.77-3a68.19,68.19,0,0,1,23,25.13v0c.42.79.82,1.59,1.21,2.39.62,0,1.24,0,1.87,0a86.84,86.84,0,0,1,74.61,42.34,85.25,85.25,0,0,1,7.17,15.13,41.7,41.7,0,0,1,1.68,5.14.37.37,0,0,1,0,.09,43.64,43.64,0,0,1,1.35,9c.1-.76.21-1.53.31-2.3,0,0,0,0,0,0a146.21,146.21,0,0,0,1.11-18Q483.76,958.93,483.39,953.82Z" transform="translate(0 -677.77)"/><path class="c" d="M471.61,954A86.84,86.84,0,0,0,397,911.63c-.62,0-1.24,0-1.87,0,.58,1.19,1.12,2.39,1.63,3.62a68.06,68.06,0,0,1,1.67,46.91c-.66,2-1.43,4-2.27,6q-1.25,2.51-2.62,4.93a95.1,95.1,0,0,1-9.19,13.34c-1.71,2.08-3.5,4.09-5.38,6a95.89,95.89,0,0,1-15.31,12.74,87.13,87.13,0,0,1-.59,73.38q-.17.38-.36.75h0a43.75,43.75,0,0,1-4.93,8.76c-1.1,1.73-2.28,3.42-3.5,5.06a161.21,161.21,0,0,0,26.08-9.3h0a162.63,162.63,0,0,0,54.51-40.58h0a163.39,163.39,0,0,0,11.32-14.46,161.26,161.26,0,0,0,27.31-69.3,43.88,43.88,0,0,1,5.27,9.6A85.15,85.15,0,0,0,471.61,954Z" transform="translate(0 -677.77)"/><path class="d" d="M364.13,1004.84a94.33,94.33,0,0,1-50.59,15.9l-2,0c-1.86,0-3.71,0-5.55-.16a87,87,0,0,1-58.26,39.17,40.89,40.89,0,0,1-4.16.63h0c-2.55.32-5.15.53-7.77.63.47.5.95,1,1.43,1.49a160.78,160.78,0,0,0,44.33,16.33,163.37,163.37,0,0,0,77.55-2.7q2.9-.83,5.75-1.75c-.38,1.29-.82,2.56-1.31,3.79l.05,0a87.08,87.08,0,0,0,.58-73.38Z" transform="translate(0 -677.77)"/><path class="e" d="M398.39,822.74h0a115,115,0,0,0-27-3.2c-3.6,0-7.17.17-10.68.5-1,.09-2,.19-3,.31l-.33,0q-2.73.33-5.42.79h0c-1.54.26-3.06.55-4.57.87l-.1,0a138.74,138.74,0,0,0-35.24,12.39h0a79.61,79.61,0,0,0-44.71,51.3h0a78.14,78.14,0,0,0-2,9.09,76.49,76.49,0,0,0-.83,7.91c-.09,1.49-.13,3-.13,4.52a79.09,79.09,0,0,0,1.33,14.53,76.36,76.36,0,0,0,2.7,10.51,79.59,79.59,0,0,0,32.18,41.61h0a65.79,65.79,0,0,0,13.61,4.88c2,.47,4.08.86,6.17,1.15a65.85,65.85,0,0,0,9.16.63c1.13,0,2.25,0,3.37-.09a51.22,51.22,0,0,1,11.37-101.17,52.29,52.29,0,0,1,6.17.37A73.63,73.63,0,0,1,405,832.89h0a43.63,43.63,0,0,1,5.76-1q2.14-.24,4.35-.27h0c1.48-.09,3-.14,4.46-.14,1,0,1.92,0,2.87.06A113.64,113.64,0,0,0,398.39,822.74Z" transform="translate(0 -677.77)"/><path class="f" d="M305.57,1020.57h0c-3.41-.44-6.79-1-10.11-1.7-3.78-.77-7.51-1.71-11.17-2.79s-7.28-2.33-10.83-3.71l0,0h0l-.05,0-.05,0q-2.85-1.11-5.64-2.36h0a137.18,137.18,0,0,1-43.13-30.22c-1.07-1.11-2.13-2.24-3.16-3.39a136.71,136.71,0,0,1-32.77-65.62,137.84,137.84,0,0,0,11.75,86.15c1,2.08,2.12,4.14,3.25,6.17h0c.8,1.42,1.61,2.82,2.45,4.21a137.94,137.94,0,0,0,52.06,49.61,44,44,0,0,1-9.27,3,87,87,0,0,0,58.26-39.18Z" transform="translate(0 -677.77)"/><path class="g" d="M874.66,834.13,845.74,939.26H818.28l-8.22-35.39q-2.2-9-4.4-23.19-1.47-9-2.5-14.25-.74,4.56-2.2,14-1.62,11.16-4.26,23l-7.93,35.83H760.88L732.25,834.13h27.6l7.93,33.92a416.23,416.23,0,0,1,7.34,42.87q2.93-22.75,7.34-42.43l7.93-34.36h26.13l7.34,32.3q5.14,22.91,7.78,44.49a414.81,414.81,0,0,1,8.23-46.1l7.19-30.69Z" transform="translate(0 -677.77)"/><path class="g" d="M970.24,834.13l39.35,105.13H981.11L974.36,920H937.94l-6.75,19.24H903l39.35-105.13ZM968,900.35l-5-14.24a217.08,217.08,0,0,1-6.75-23.64q-2.94,11.44-7.2,23.93l-4.84,14Z" transform="translate(0 -677.77)"/><path class="g" d="M1075.52,834.13V939.26h-27.46V834.13Z" transform="translate(0 -677.77)"/><path class="g" d="M1201.78,834.13v22.61h-50.21V877.3H1195v21.43h-43.46v40.53h-27.46V834.13Z" transform="translate(0 -677.77)"/><path class="g" d="M1291.2,831.49q24.51,0,39,17.32,12.48,15.13,12.48,37.89,0,26.28-16.15,41.69-14.1,13.51-35.38,13.51-25,0-39.65-17.32-12.61-15-12.62-37.88,0-26.3,15.56-41.12Q1269.47,831.5,1291.2,831.49Zm-.15,22.61a21,21,0,0,0-18.5,10q-5.73,8.52-5.73,22.47,0,16.29,7.35,25.11,6.45,7.64,17,7.63,11.15,0,17.47-8.74t6.31-24.44q0-16-7.34-24.52A20.65,20.65,0,0,0,1291.05,854.1Z" transform="translate(0 -677.77)"/><path class="g" d="M1434.64,831.49q24.52,0,39.06,17.32,12.48,15.13,12.48,37.89,0,26.28-16.15,41.69-14.1,13.51-35.39,13.51-25,0-39.64-17.32-12.63-15-12.63-37.88,0-26.3,15.57-41.12Q1412.91,831.5,1434.64,831.49Zm-.14,22.61a21,21,0,0,0-18.5,10q-5.73,8.52-5.73,22.47,0,16.29,7.34,25.11,6.47,7.64,17,7.63,11.16,0,17.47-8.74t6.32-24.44q0-16-7.34-24.52A20.65,20.65,0,0,0,1434.5,854.1Z" transform="translate(0 -677.77)"/><path class="h" d="M995.62,1057.54a34.83,34.83,0,0,1-8.47,21.23q-9.78,11.45-27.94,11.44-19.35,0-30-13.42-9.12-11.32-9.13-28,0-17.27,10.45-29,10.89-12.21,29.37-12.21,15.4,0,25.63,9.57a29.38,29.38,0,0,1,9.57,20.24h-20a17.44,17.44,0,0,0-3.74-8.14q-4.29-4.73-11.77-4.73a16.36,16.36,0,0,0-14.3,7.37q-4.29,6.5-4.29,17,0,12.21,5.5,18.7a16,16,0,0,0,12.87,5.72q8.25,0,12.54-6,2.31-3.3,3.19-9.68Z" transform="translate(0 -677.77)"/><path class="h" d="M1063.27,1007.49q18.38,0,29.26,13,9.35,11.33,9.35,28.38,0,19.7-12.1,31.24-10.56,10.13-26.51,10.12-18.7,0-29.7-13-9.46-11.22-9.46-28.38,0-19.69,11.66-30.8Q1047,1007.49,1063.27,1007.49Zm-.11,16.94a15.71,15.71,0,0,0-13.86,7.48q-4.29,6.38-4.29,16.83,0,12.21,5.5,18.81a15.91,15.91,0,0,0,12.76,5.72,15.24,15.24,0,0,0,13.09-6.55q4.73-6.54,4.73-18.31,0-12-5.5-18.37A15.47,15.47,0,0,0,1063.16,1024.43Z" transform="translate(0 -677.77)"/><path class="h" d="M1134.77,1009.47h38.83q12,0,18.26,3.74,10.67,6.27,10.67,19a21.41,21.41,0,0,1-3.3,11.77,18.85,18.85,0,0,1-8.91,7.48,13.28,13.28,0,0,1,7.92,5.94,19.44,19.44,0,0,1,2.7,6.32q.7,3.26,1.7,14.69.77,7.26,2,9l.66.77h-21q-1-2.31-2.31-16.5-.89-7.15-4-10t-10-2.8h-12.65v29.26h-20.57Zm20.57,16.17v18.59h14.52q12.44,0,12.43-9.46,0-9.13-12.65-9.13Z" transform="translate(0 -677.77)"/><path class="h" d="M1302.41,1009.47v16.94H1260v13.09h38.83v16.17H1260v15.62h43.45v16.94h-64v-78.76Z" transform="translate(0 -677.77)"/></svg>